<svg width="19" height="19" viewBox="0 0 19 19" fill="none" xmlns="http://www.w3.org/2000/svg">
<g clip-path="url(#clip0_8065_14)">
<path d="M18.3839 13.5105V5.6919C18.3839 0.830889 14.9431 -1.14573 10.741 1.27014L8.86685 2.35361C8.41296 2.61716 8.13477 3.10033 8.13477 3.62743V15.575C8.13477 16.1021 8.41296 16.5853 8.86685 16.8488L10.741 17.9323C14.9431 20.3481 18.3839 18.3715 18.3839 13.5105Z" fill="black" fill-opacity="0.75"/>
<path d="M6.66889 14.2975V4.88302C6.66889 4.312 6.05394 3.9606 5.57077 4.25344L3.9602 5.1905C-0.24194 7.60636 -0.24194 11.5889 3.9602 14.0047L5.57077 14.9418C6.05394 15.22 6.66889 14.8686 6.66889 14.2975Z" fill="black" fill-opacity="0.75"/>
</g>
<defs>
<clipPath id="clip0_8065_14">
<rect width="18.7998" height="17.6138" fill="white" transform="matrix(0 -1 1 0 0.771484 18.9999)"/>
</clipPath>
</defs>
</svg>
