<svg width="18" height="19" viewBox="0 0 18 19" fill="none" xmlns="http://www.w3.org/2000/svg">
<g clip-path="url(#clip0_8065_17)">
<path d="M0.387605 5.68943V13.5081C0.387605 18.3691 3.82838 20.3457 8.03052 17.9298L9.90464 16.8463C10.3585 16.5828 10.6367 16.0996 10.6367 15.5725V3.62496C10.6367 3.09787 10.3585 2.6147 9.90464 2.35115L8.03052 1.26767C3.82838 -1.14819 0.387605 0.828421 0.387605 5.68943Z" fill="black" fill-opacity="0.75"/>
<path d="M12.1026 4.90241V14.3169C12.1026 14.8879 12.7175 15.2393 13.2007 14.9465L14.8113 14.0095C19.0134 11.5936 19.0134 7.61108 14.8113 5.19524L13.2007 4.25818C12.7175 3.97999 12.1026 4.33139 12.1026 4.90241Z" fill="black" fill-opacity="0.75"/>
</g>
<defs>
<clipPath id="clip0_8065_17">
<rect width="18.7998" height="17.6138" fill="white" transform="matrix(0 1 -1 0 18 0.200073)"/>
</clipPath>
</defs>
</svg>
