<svg width="15" height="17" viewBox="0 0 15 17" fill="none" xmlns="http://www.w3.org/2000/svg">
<path d="M3.02412 16.0335H12.605C13.2402 16.0335 13.8494 15.7811 14.2986 15.332C14.7478 14.8828 15.0002 14.2735 15.0002 13.6383V4.05745C15.0002 3.63395 14.8319 3.22779 14.5325 2.92833C14.233 2.62887 13.8269 2.46064 13.4034 2.46064H11.8066V0.863833C11.8066 0.652083 11.7224 0.449006 11.5727 0.299277C11.423 0.149547 11.2199 0.0654297 11.0081 0.0654297C10.7964 0.0654297 10.5933 0.149547 10.4436 0.299277C10.2939 0.449006 10.2097 0.652083 10.2097 0.863833V2.46064H5.41933V0.863833C5.41933 0.652083 5.33521 0.449006 5.18548 0.299277C5.03575 0.149547 4.83267 0.0654297 4.62092 0.0654297C4.40917 0.0654297 4.2061 0.149547 4.05637 0.299277C3.90664 0.449006 3.82252 0.652083 3.82252 0.863833V2.46064H2.22571C1.80221 2.46064 1.39606 2.62887 1.0966 2.92833C0.797141 3.22779 0.628906 3.63395 0.628906 4.05745V13.6383C0.628906 14.2735 0.881258 14.8828 1.33045 15.332C1.77964 15.7811 2.38887 16.0335 3.02412 16.0335ZM2.22571 8.44866C2.22571 8.34279 2.26777 8.24125 2.34264 8.16638C2.4175 8.09152 2.51904 8.04946 2.62491 8.04946H13.0042C13.11 8.04946 13.2116 8.09152 13.2864 8.16638C13.3613 8.24125 13.4034 8.34279 13.4034 8.44866V13.6383C13.4034 13.85 13.3192 14.0531 13.1695 14.2028C13.0198 14.3526 12.8167 14.4367 12.605 14.4367H3.02412C2.81237 14.4367 2.60929 14.3526 2.45956 14.2028C2.30983 14.0531 2.22571 13.85 2.22571 13.6383V8.44866Z" fill="black" fill-opacity="0.75"/>
</svg>
