<svg width="16" height="17" viewBox="0 0 16 17" fill="none" xmlns="http://www.w3.org/2000/svg">
<path d="M4.51172 0.549805C2.21825 0.549805 0.359375 1.45509 0.359375 2.57227V3.65237C0.359375 4.76952 2.21825 5.6748 4.51172 5.6748C6.80419 5.6748 8.66356 4.76952 8.66356 3.65234V2.57227C8.66356 1.45509 6.80419 0.549805 4.51172 0.549805ZM4.51172 1.38965C6.53322 1.38965 7.82325 2.16602 7.82325 2.57227C7.82325 2.97852 6.53322 3.7549 4.51172 3.7549C2.48925 3.7549 1.19972 2.97852 1.19972 2.57227C1.19972 2.16602 2.48925 1.38965 4.51172 1.38965Z" fill="#6F42C1"/>
<path d="M4.51122 7.29969C5.27928 7.29969 5.99853 7.19716 6.61572 7.02038C6.02147 7.54285 5.53516 8.18835 5.19237 8.91297C4.97166 8.93103 4.74412 8.94128 4.51122 8.94128C2.21875 8.94128 0.359375 8.03453 0.359375 6.91785V5.64832C0.359375 5.62782 0.375 5.60925 0.3955 5.60728C0.405281 5.60435 0.416 5.60925 0.423344 5.61997C0.418469 5.61997 0.423344 5.63463 0.451656 5.70397C0.8535 6.6161 2.51806 7.29969 4.51122 7.29969Z" fill="#6F42C1"/>
<path d="M4.62597 11.4279C4.62597 11.677 4.64159 11.9201 4.67431 12.1604C4.62109 12.1633 4.56687 12.1633 4.51122 12.1633C2.21875 12.1633 0.359375 11.259 0.359375 10.1428V8.86987C0.359375 8.85181 0.375 8.83421 0.3955 8.83131C0.412094 8.82934 0.422844 8.83912 0.430656 8.85084C0.420875 8.83815 0.410625 8.83131 0.451656 8.92896C0.8535 9.84009 2.51806 10.5247 4.51122 10.5247C4.57275 10.5247 4.63672 10.5247 4.69775 10.5188C4.64891 10.8161 4.62597 11.1184 4.62597 11.4279Z" fill="#6F42C1"/>
<path d="M6.03709 15.2457C5.56591 15.3385 5.05125 15.3868 4.51122 15.3868C2.21875 15.3868 0.359375 14.483 0.359375 13.3639V12.0934C0.359375 12.0729 0.375 12.0573 0.3955 12.0553C0.411125 12.0524 0.425781 12.0602 0.431156 12.0758C0.420906 12.0631 0.408219 12.0504 0.451656 12.15C0.8535 13.0641 2.51806 13.7477 4.51122 13.7477C4.708 13.7477 4.90525 13.7399 5.09472 13.7272C5.33006 14.2828 5.65037 14.7955 6.03709 15.2457Z" fill="#6F42C1"/>
<path d="M12.1206 11.0972H11.0151L10.897 11.2812V11.7236H12.1206V11.7256V12.2617V12.3515H10.897V13.2998H10.1367V12.3515H8.91309V12.2617V11.7256V11.7236H10.1367V11.2822L10.0181 11.0972H8.91309V10.5605H9.67287L9.02687 9.55566H9.6709L10.5166 10.8711L11.3623 9.55566H12.0068L11.3608 10.5605H12.1206V11.0972Z" fill="#6F42C1"/>
<path d="M10.5171 7.58591C12.6353 7.58591 14.3589 9.30954 14.3589 11.4277C14.3589 13.5459 12.6353 15.2695 10.5171 15.2695C8.39941 15.2695 6.67579 13.5459 6.67579 11.4277C6.67579 9.30954 8.39941 7.58591 10.5171 7.58591ZM10.5171 6.30566C7.68801 6.30566 5.39551 8.59913 5.39551 11.4277C5.39551 14.2568 7.68798 16.5498 10.5171 16.5498C13.3462 16.5498 15.6397 14.2568 15.6397 11.4277C15.6396 8.5991 13.3462 6.30566 10.5171 6.30566Z" fill="#6F42C1"/>
</svg>
