<svg width="12" height="12" viewBox="0 0 12 12" fill="none" xmlns="http://www.w3.org/2000/svg">
<g clip-path="url(#clip0_8065_9639)">
<path d="M5.40094 0.610765C5.40094 0.451953 5.33785 0.299645 5.22555 0.187348C5.11326 0.0750508 4.96095 0.0119629 4.80214 0.0119629H0.610521C0.451709 0.0119629 0.299401 0.0750508 0.187104 0.187348C0.0748067 0.299645 0.0117188 0.451953 0.0117188 0.610765V11.988H5.40094V0.610765ZM4.20334 9.5928H1.20932V8.3952H4.20334V9.5928ZM4.20334 7.19759H1.20932V5.99999H4.20334V7.19759ZM4.20334 4.80238H1.20932V3.60478H4.20334V4.80238ZM4.20334 2.40717H1.20932V1.20957H4.20334V2.40717ZM11.389 3.60478H7.19735C7.03854 3.60478 6.88623 3.66787 6.77393 3.78016C6.66163 3.89246 6.59855 4.04477 6.59855 4.20358V11.988H11.9878V4.20358C11.9878 4.04477 11.9247 3.89246 11.8124 3.78016C11.7001 3.66787 11.5478 3.60478 11.389 3.60478ZM8.99375 10.7904H7.79615V9.5928H8.99375V10.7904ZM8.99375 8.3952H7.79615V7.19759H8.99375V8.3952ZM8.99375 5.99999H7.79615V4.80238H8.99375V5.99999ZM10.7902 10.7904H9.59256V9.5928H10.7902V10.7904ZM10.7902 8.3952H9.59256V7.19759H10.7902V8.3952ZM10.7902 5.99999H9.59256V4.80238H10.7902V5.99999Z" fill="#10438F"/>
</g>
<defs>
<clipPath id="clip0_8065_9639">
<rect width="12" height="12" fill="white"/>
</clipPath>
</defs>
</svg>
