<svg width="16" height="15" viewBox="0 0 16 15" fill="none" xmlns="http://www.w3.org/2000/svg">
<g clip-path="url(#clip0_8813_21424)">
<path d="M11.6819 11.0369H11.6896M11.993 8.70356H12.4596C13.1844 8.70356 13.5468 8.70356 13.8327 8.82194C14.2138 8.97983 14.5167 9.28269 14.6746 9.6638C14.793 9.94971 14.793 10.3121 14.793 11.0369C14.793 11.7617 14.793 12.1241 14.6746 12.41C14.5167 12.7911 14.2138 13.094 13.8327 13.2518C13.5468 13.3702 13.1844 13.3702 12.4596 13.3702H3.1263C2.40151 13.3702 2.03911 13.3702 1.75324 13.2518C1.37209 13.094 1.06926 12.7911 0.911378 12.41C0.792969 12.1241 0.792969 11.7617 0.792969 11.0369C0.792969 10.3121 0.792969 9.94971 0.911378 9.6638C1.06926 9.28269 1.37209 8.97983 1.75324 8.82194C2.03911 8.70356 2.40151 8.70356 3.1263 8.70356H3.59297M7.79297 9.48134V0.925781M7.79297 9.48134L5.45964 7.148M7.79297 9.48134L10.1263 7.148" stroke="white" stroke-width="1.55556" stroke-linecap="round" stroke-linejoin="round"/>
</g>
<defs>
<clipPath id="clip0_8813_21424">
<rect width="15.5867" height="14" fill="white" transform="translate(0 0.148438)"/>
</clipPath>
</defs>
</svg>
