<svg width="17" height="17" viewBox="0 0 17 17" fill="none" xmlns="http://www.w3.org/2000/svg">
<g clip-path="url(#clip0_7678_15308)">
<path d="M4.63563 9.79625L3.11218 13.7066L6.95494 12.1156L4.63563 9.79625ZM15.7901 1.44453L15.3025 0.956944C14.7646 0.418323 13.8908 0.418323 13.3522 0.956944L12.377 1.93212L14.8149 4.37074L15.7901 3.39556C16.3294 2.85694 16.3294 1.98315 15.7901 1.44453ZM4.71287 9.59694L5.06184 9.24798L7.49977 11.6859L14.3274 4.85832L11.8894 2.42039L12.377 1.93212L4.71287 9.59694ZM13.1343 15.1735L1.39218 15.1776L1.39425 3.43556L9.61563 3.43281L10.9039 2.06729H0.693562C0.312872 2.06729 0.00390625 2.37556 0.00390625 2.75694V15.8604C0.00390625 16.2418 0.312872 16.55 0.693562 16.55H13.797C14.1784 16.55 14.4867 16.2418 14.4867 15.8604V6.16522L13.097 7.52867L13.1343 15.1735Z" fill="#10438F"/>
</g>
<defs>
<clipPath id="clip0_7678_15308">
<rect width="16.2207" height="16" fill="white" transform="translate(0 0.550293)"/>
</clipPath>
</defs>
</svg>
