<svg width="18" height="12" viewBox="0 0 18 12" fill="none" xmlns="http://www.w3.org/2000/svg">
<path d="M16.7322 11.9937C16.6015 11.9937 16.4784 11.9203 16.418 11.7995C16.3978 11.7605 14.7876 8.77479 8.06796 8.67321V11.6424C8.06796 11.7762 7.99181 11.8984 7.87191 11.9574C7.75217 12.0164 7.60947 12.0027 7.50282 11.9214L0.140026 6.27884C0.0532522 6.21229 0.00195312 6.10935 0.00195312 6.00029C0.00195312 5.89067 0.0532522 5.78779 0.140026 5.72106L7.50316 0.078734C7.60998 -0.00272753 7.75251 -0.0164949 7.87225 0.0422306C7.99216 0.100842 8.06831 0.223491 8.06831 0.356937V3.48607C8.24602 3.47476 8.47755 3.46493 8.75079 3.46493C11.2564 3.46493 17.0838 4.26195 17.0838 11.6417C17.0838 11.805 16.9716 11.947 16.8125 11.9841C16.7857 11.991 16.7593 11.9937 16.7322 11.9937Z" fill="black" fill-opacity="0.75"/>
</svg>
