<svg width="17" height="17" viewBox="0 0 17 17" fill="none" xmlns="http://www.w3.org/2000/svg">
<mask id="mask0_8702_17850" style="mask-type:luminance" maskUnits="userSpaceOnUse" x="0" y="0" width="17" height="17">
<path d="M0.647461 0.68457H16.278V16.3151H0.647461V0.68457Z" fill="white"/>
</mask>
<g mask="url(#mask0_8702_17850)">
<mask id="mask1_8702_17850" style="mask-type:luminance" maskUnits="userSpaceOnUse" x="0" y="0" width="17" height="17">
<path d="M8.57337 16.3049L7.83762 15.6364L6.9972 16.1673L6.41113 15.3644L5.48105 15.7153L5.06855 14.8108L4.08681 14.9672L3.86487 13.9983L2.87181 13.954L2.84938 12.9601L1.88551 12.7168L2.0637 11.7387L1.16855 11.3064L1.53992 10.3843L0.750117 9.7805L1.29953 8.95211L0.647461 8.20175L1.35239 7.50084L0.864658 6.6345L1.6963 6.08978L1.39294 5.14312L2.31717 4.77702L2.21059 3.78866L3.18955 3.61603L3.28416 2.62643L4.27784 2.65437L4.5697 1.70415L5.53745 1.93161L6.0146 1.05956L6.91674 1.47709L7.55961 0.718958L8.35928 1.30959L9.14166 0.696289L9.80605 1.43587L10.6959 0.992706L11.1977 1.85076L12.1586 1.59584L12.4774 2.53733L13.4699 2.48102L13.5927 3.46746L14.5763 3.6121L14.4979 4.60305L15.4323 4.94265L15.156 5.89765L16.0029 6.41836L15.5401 7.29812L16.2647 7.9787L15.6343 8.74733L16.2072 9.55975L15.435 10.1858L15.8325 11.097L14.9501 11.5547L15.1561 12.5272L14.1996 12.798L14.2056 13.792L13.2142 13.8648L13.02 14.8397L12.0342 14.7113L11.6477 15.6272L10.7079 15.303L10.145 16.1224L9.28975 15.6157L8.57337 16.3049ZM1.57112 9.69155C1.57165 9.69471 1.57222 9.69792 1.5728 9.70113C2.14191 12.9881 5.00721 15.487 8.45609 15.487C12.3148 15.487 15.4425 12.3593 15.4425 8.50061C15.4425 6.59209 14.6765 4.86252 13.436 3.60156C12.9415 3.09839 12.3714 2.66999 11.744 2.33466C10.7598 1.80451 9.63352 1.50392 8.43697 1.50392C4.57818 1.50392 1.45049 4.63161 1.45049 8.4903C1.45049 8.90006 1.48543 9.30053 1.55358 9.69083C1.55943 9.69107 1.56528 9.69131 1.57112 9.69155Z" fill="white"/>
</mask>
<g mask="url(#mask1_8702_17850)">
<mask id="mask2_8702_17850" style="mask-type:luminance" maskUnits="userSpaceOnUse" x="0" y="0" width="17" height="17">
<path d="M8.57532 16.3079L7.83957 15.6393L6.99916 16.1702L6.41308 15.3673L5.483 15.7182L5.07051 14.8137L4.08876 14.9702L3.86682 14.0012L2.87376 13.9569L2.85133 12.963L1.88746 12.7197L2.06565 11.7416L1.1705 11.3093L1.54188 10.3872L0.75207 9.78343L1.30148 8.95504L0.649414 8.20468L1.35434 7.50377L0.866611 6.63743L1.69826 6.09271L1.39489 5.14605L2.31913 4.77995L2.21254 3.79159L3.19151 3.61896L3.28611 2.62936L4.27979 2.6573L4.57165 1.70708L5.53941 1.93454L6.01655 1.06249L6.91869 1.48001L7.56156 0.721887L8.36124 1.31252L9.14362 0.699219L9.808 1.4388L10.6978 0.995636L11.1997 1.85369L12.1606 1.59877L12.4794 2.54026L13.4718 2.48395L13.5947 3.47039L14.5782 3.61503L14.4998 4.60598L15.4342 4.94558L15.1579 5.90058L16.0049 6.42129L15.5421 7.30105L16.2667 7.98163L15.6363 8.75026L16.2091 9.56268L15.4369 10.1888L15.8344 11.0999L14.952 11.5576L15.1581 12.5302L14.2016 12.8009L14.2076 13.795L13.2161 13.8677L13.0219 14.8426L12.0361 14.7143L11.6497 15.6301L10.7099 15.3059L10.147 16.1253L9.2917 15.6186L8.57532 16.3079ZM1.57308 9.69448C1.5736 9.69764 1.57418 9.70085 1.57475 9.70406C2.14386 12.991 5.00916 15.4899 8.45805 15.4899C12.3167 15.4899 15.4444 12.3622 15.4444 8.50354C15.4444 6.59502 14.6785 4.86545 13.4379 3.60449C12.9434 3.10132 12.3734 2.67292 11.746 2.33759C10.7618 1.80744 9.63547 1.50685 8.43892 1.50685C4.58014 1.50685 1.45245 4.63454 1.45245 8.49323C1.45245 8.90299 1.48738 9.30346 1.55553 9.69376C1.56138 9.694 1.56723 9.69424 1.57308 9.69448Z" fill="white"/>
</mask>
<g mask="url(#mask2_8702_17850)">
<path d="M7.2486 24.0217L23.977 9.71202L9.66782 -7.01562L-7.06055 7.2941L7.2486 24.0217Z" fill="#FFD352"/>
</g>
</g>
</g>
<mask id="mask3_8702_17850" style="mask-type:luminance" maskUnits="userSpaceOnUse" x="1" y="2" width="15" height="14">
<path d="M1.56641 2.3291H15.4547V15.4936H1.56641V2.3291Z" fill="white"/>
</mask>
<g mask="url(#mask3_8702_17850)">
<mask id="mask4_8702_17850" style="mask-type:luminance" maskUnits="userSpaceOnUse" x="1" y="2" width="15" height="14">
<path d="M8.45919 15.4902C5.01031 15.4902 2.14501 12.9913 1.5759 9.70437C1.57532 9.70116 1.57475 9.69795 1.57422 9.69478C1.77627 9.70288 1.97569 9.70691 2.17252 9.70691C2.32175 9.70691 2.46941 9.70461 2.61568 9.70005C3.17094 12.4175 5.58004 14.4678 8.45919 14.4678C11.7477 14.4678 14.4232 11.7924 14.4232 8.50384C14.4232 6.92658 13.8079 5.4905 12.8046 4.42287C13.0355 4.13211 13.2403 3.85348 13.42 3.59458C12.9305 3.0965 12.367 2.67159 11.7471 2.33789C12.3745 2.67322 12.9446 3.10163 13.4391 3.60479C14.6796 4.86575 15.4456 6.59532 15.4456 8.50384C15.4456 12.3625 12.3179 15.4902 8.45919 15.4902ZM8.45919 14.0419C5.80898 14.0419 3.5876 12.1705 3.04691 9.68007C3.87616 9.62903 4.65523 9.5062 5.38561 9.32768C5.4111 9.32169 5.43761 9.31493 5.46315 9.30807C5.46488 9.30769 5.46655 9.30721 5.46828 9.30683L7.76883 11.2556L11.9093 6.52981L11.3362 6.02774C11.7882 5.6003 12.186 5.16955 12.5328 4.75595C13.4414 5.74288 13.9972 7.05981 13.9972 8.50384C13.9972 11.5574 11.5128 14.0419 8.45919 14.0419ZM7.646 9.60483L6.80376 8.89141C7.76969 8.53121 8.63388 8.07443 9.40279 7.56748C9.42551 7.55238 9.44817 7.53729 9.47089 7.5221L7.646 9.60483Z" fill="white"/>
</mask>
<g mask="url(#mask4_8702_17850)">
<mask id="mask5_8702_17850" style="mask-type:luminance" maskUnits="userSpaceOnUse" x="1" y="2" width="15" height="14">
<path d="M8.45236 15.4892C5.00347 15.4892 2.13817 12.9903 1.56906 9.70339C1.56849 9.70018 1.56791 9.69697 1.56738 9.69381C1.76944 9.70191 1.96885 9.70593 2.16568 9.70593C2.31492 9.70593 2.46258 9.70363 2.60884 9.69908C3.1641 12.4165 5.5732 14.4669 8.45236 14.4669C11.7409 14.4669 14.4164 11.7914 14.4164 8.50287C14.4164 6.9256 13.8011 5.48953 12.7977 4.4219C13.0286 4.13114 13.2334 3.8525 13.4131 3.59361C12.9236 3.09552 12.3601 2.67062 11.7403 2.33691C12.3677 2.67225 12.9377 3.10065 13.4323 3.60382C14.6728 4.86477 15.4387 6.59434 15.4387 8.50287C15.4387 12.3616 12.311 15.4892 8.45236 15.4892ZM8.45236 14.0409C5.80214 14.0409 3.58077 12.1695 3.04007 9.67909C3.86932 9.62805 4.64839 9.50522 5.37877 9.3267C5.40427 9.32071 5.43077 9.31395 5.45632 9.3071C5.45804 9.30671 5.45972 9.30624 5.46144 9.30585L7.76199 11.2546L11.9025 6.52883L11.3294 6.02677C11.7814 5.59932 12.1792 5.16857 12.526 4.75498C13.4346 5.7419 13.9904 7.05883 13.9904 8.50287C13.9904 11.5565 11.506 14.0409 8.45236 14.0409ZM7.63916 9.60385L6.79693 8.89044C7.76286 8.53023 8.62704 8.07346 9.39595 7.5665C9.41867 7.55141 9.44134 7.53631 9.46405 7.52112L7.63916 9.60385Z" fill="white"/>
</mask>
<g mask="url(#mask5_8702_17850)">
<path d="M15.2777 0.854492L0.161133 2.48869L1.7268 16.9714L16.8434 15.3371L15.2777 0.854492Z" fill="#FFD352"/>
</g>
</g>
<path d="M8.46107 2.96014C5.40737 2.96014 2.92303 5.44448 2.92303 8.49817C2.92303 11.5518 5.40737 14.0362 8.46107 14.0362C11.5147 14.0362 13.9991 11.5518 13.9991 8.49817C13.9991 5.44448 11.5147 2.96014 8.46107 2.96014ZM8.46107 14.4622C5.17254 14.4622 2.49707 11.7867 2.49707 8.49817C2.49707 5.20965 5.17254 2.53418 8.46107 2.53418C11.7496 2.53418 14.4251 5.20965 14.4251 8.49817C14.4251 11.7867 11.7496 14.4622 8.46107 14.4622Z" fill="white"/>
<path d="M7.77149 11.2506L5.01172 8.91291L5.77459 8.01225L7.64866 9.59982L11.0242 5.74707L11.912 6.5248L7.77149 11.2506Z" fill="white"/>
</g>
<mask id="mask6_8702_17850" style="mask-type:luminance" maskUnits="userSpaceOnUse" x="1" y="1" width="11" height="9">
<path d="M1.44434 1.49414H11.7502V9.70199H1.44434V1.49414Z" fill="white"/>
</mask>
<g mask="url(#mask6_8702_17850)">
<mask id="mask7_8702_17850" style="mask-type:luminance" maskUnits="userSpaceOnUse" x="1" y="1" width="11" height="9">
<path d="M1.57375 9.69056C1.56791 9.69032 1.56206 9.69008 1.55621 9.68984C1.48806 9.29953 1.45312 8.89907 1.45312 8.48931C1.45312 4.63062 4.58082 1.50293 8.4396 1.50293C9.63615 1.50293 10.7624 1.80352 11.7466 2.33366C10.767 1.80989 9.64756 1.51323 8.45872 1.51323C4.60003 1.51323 1.4723 4.64092 1.4723 8.49962C1.4723 8.90607 1.50666 9.30337 1.57375 9.69056Z" fill="white"/>
</mask>
<g mask="url(#mask7_8702_17850)">
<mask id="mask8_8702_17850" style="mask-type:luminance" maskUnits="userSpaceOnUse" x="1" y="1" width="11" height="9">
<path d="M1.57278 9.69446C1.56693 9.69422 1.56108 9.69398 1.55524 9.69374C1.48709 9.30344 1.45215 8.90298 1.45215 8.49322C1.45215 4.63453 4.57984 1.50684 8.43863 1.50684C9.63517 1.50684 10.7615 1.80742 11.7457 2.33757C10.766 1.8138 9.64658 1.51714 8.45775 1.51714C4.59906 1.51714 1.47132 4.64483 1.47132 8.50352C1.47132 8.90998 1.50568 9.30727 1.57278 9.69446Z" fill="white"/>
</mask>
<g mask="url(#mask8_8702_17850)">
<path d="M5.80107 14.7797L15.7895 6.23543L7.39559 -3.57715L-2.59277 4.96714L5.80107 14.7797Z" fill="#FFD352"/>
</g>
</g>
</g>
<mask id="mask9_8702_17850" style="mask-type:luminance" maskUnits="userSpaceOnUse" x="1" y="1" width="13" height="9">
<path d="M1.46875 1.50488H13.4309V9.71273H1.46875V1.50488Z" fill="white"/>
</mask>
<g mask="url(#mask9_8702_17850)">
<mask id="mask10_8702_17850" style="mask-type:luminance" maskUnits="userSpaceOnUse" x="1" y="1" width="13" height="9">
<path d="M2.17241 9.708C1.97558 9.708 1.77617 9.70398 1.57411 9.69588C1.50702 9.30869 1.47266 8.91139 1.47266 8.50494C1.47266 4.64624 4.60039 1.51855 8.45909 1.51855C9.64792 1.51855 10.7674 1.81521 11.747 2.33899C12.3669 2.67269 12.9304 3.09759 13.4199 3.59568C13.2401 3.85457 13.0354 4.13321 12.8045 4.42397C11.7158 3.26552 10.1703 2.54094 8.45909 2.54094C5.17056 2.54094 2.49509 5.21641 2.49509 8.50494C2.49509 8.91436 2.53655 9.31468 2.61557 9.70115C2.46931 9.7057 2.32165 9.708 2.17241 9.708ZM3.04681 9.68116C2.96437 9.30193 2.92105 8.90847 2.92105 8.50494C2.92105 5.45124 5.40539 2.9669 8.45909 2.9669C10.0687 2.9669 11.5199 3.65702 12.5327 4.75705C12.1859 5.17064 11.7881 5.60139 11.3361 6.02884L11.0215 5.75317L9.47079 7.52319C9.44807 7.53838 9.4254 7.55348 9.40268 7.56858C8.63377 8.07553 7.76959 8.5323 6.80366 8.89251L5.77183 8.01835L5.00896 8.91901L5.46817 9.30792C5.46645 9.30831 5.46477 9.30878 5.46305 9.30917C5.4375 9.31602 5.411 9.32278 5.3855 9.32877C4.65512 9.50729 3.87605 9.63012 3.04681 9.68116Z" fill="white"/>
</mask>
<g mask="url(#mask10_8702_17850)">
<mask id="mask11_8702_17850" style="mask-type:luminance" maskUnits="userSpaceOnUse" x="1" y="1" width="13" height="9">
<path d="M2.17241 9.708C1.97558 9.708 1.77617 9.70398 1.57411 9.69588C1.50702 9.30869 1.47266 8.91139 1.47266 8.50494C1.47266 4.64624 4.60039 1.51855 8.45909 1.51855C9.64792 1.51855 10.7674 1.81521 11.747 2.33899C12.3669 2.67269 12.9304 3.09759 13.4199 3.59568C13.2401 3.85457 13.0354 4.13321 12.8045 4.42397C11.7158 3.26552 10.1703 2.54094 8.45909 2.54094C5.17056 2.54094 2.49509 5.21641 2.49509 8.50494C2.49509 8.91436 2.53655 9.31468 2.61557 9.70115C2.46931 9.7057 2.32165 9.708 2.17241 9.708ZM3.04681 9.68116C2.96437 9.30193 2.92105 8.90847 2.92105 8.50494C2.92105 5.45124 5.40539 2.9669 8.45909 2.9669C10.0687 2.9669 11.5199 3.65702 12.5327 4.75705C12.1859 5.17064 11.7881 5.60139 11.3361 6.02884L11.0215 5.75317L9.47079 7.52319C9.44807 7.53838 9.4254 7.55348 9.40268 7.56858C8.63377 8.07553 7.76959 8.5323 6.80366 8.89251L5.77183 8.01835L5.00896 8.91901L5.46817 9.30792C5.46645 9.30831 5.46477 9.30878 5.46305 9.30917C5.4375 9.31602 5.411 9.32278 5.3855 9.32877C4.65512 9.50729 3.87605 9.63012 3.04681 9.68116Z" fill="white"/>
</mask>
<g mask="url(#mask11_8702_17850)">
<path d="M13.2849 0.240234L0.600586 1.61147L1.61372 10.983L14.298 9.61171L13.2849 0.240234Z" fill="#FFD352"/>
</g>
</g>
<path d="M2.61755 9.69439C2.53853 9.30792 2.49707 8.9076 2.49707 8.49817C2.49707 5.20965 5.17254 2.53418 8.46106 2.53418C10.1723 2.53418 11.7178 3.25876 12.8064 4.41721C12.7615 4.47376 12.7155 4.53079 12.6687 4.5882C12.6248 4.64197 12.5802 4.69594 12.5347 4.75029C11.5219 3.65026 10.0706 2.96014 8.46106 2.96014C5.40737 2.96014 2.92303 5.44448 2.92303 8.49817C2.92303 8.9017 2.96635 9.29517 3.04878 9.6744C2.97162 9.67905 2.89408 9.68322 2.81616 9.68667C2.75031 9.68974 2.68403 9.69228 2.61755 9.69439Z" fill="white"/>
<path d="M5.47094 9.30182L5.01172 8.91291L5.77459 8.01225L6.80642 8.88641C6.80484 8.88703 6.80335 8.88751 6.80177 8.88813C6.77867 8.89671 6.75576 8.90519 6.7318 8.91363C6.32952 9.06138 5.90869 9.19217 5.47094 9.30182ZM9.47355 7.51709L11.0242 5.74707L11.3389 6.02274C11.3376 6.02398 11.3364 6.02508 11.3352 6.02628C11.3199 6.04162 11.3037 6.05609 11.2883 6.07056C10.7866 6.54172 10.22 7.00779 9.58603 7.44137C9.54874 7.46643 9.51122 7.49183 9.47355 7.51709Z" fill="white"/>
</g>
</svg>
