<svg width="17" height="16" viewBox="0 0 17 16" fill="none" xmlns="http://www.w3.org/2000/svg">
<mask id="mask0_8702_18098" style="mask-type:luminance" maskUnits="userSpaceOnUse" x="0" y="0" width="17" height="16">
<path d="M0.647461 0.285156H16.278V15.9157H0.647461V0.285156Z" fill="white"/>
</mask>
<g mask="url(#mask0_8702_18098)">
<mask id="mask1_8702_18098" style="mask-type:luminance" maskUnits="userSpaceOnUse" x="0" y="0" width="17" height="16">
<path d="M8.57337 15.9055L7.83762 15.237L6.9972 15.7679L6.41113 14.965L5.48105 15.3159L5.06855 14.4114L4.08681 14.5678L3.86487 13.5989L2.87181 13.5545L2.84938 12.5607L1.88551 12.3174L2.0637 11.3393L1.16855 10.907L1.53992 9.98484L0.750117 9.38108L1.29953 8.5527L0.647461 7.80233L1.35239 7.10143L0.864658 6.23509L1.6963 5.69037L1.39294 4.7437L2.31717 4.3776L2.21059 3.38924L3.18955 3.21662L3.28416 2.22701L4.27784 2.25495L4.5697 1.30474L5.53745 1.53219L6.0146 0.660147L6.91674 1.07767L7.55961 0.319544L8.35928 0.910173L9.14166 0.296875L9.80605 1.03646L10.6959 0.593292L11.1977 1.45134L12.1586 1.19643L12.4774 2.13792L13.4699 2.08161L13.5927 3.06805L14.5763 3.21269L14.4979 4.20364L15.4323 4.54323L15.156 5.49824L16.0029 6.01894L15.5401 6.89871L16.2647 7.57929L15.6343 8.34791L16.2072 9.16034L15.435 9.78643L15.8325 10.6975L14.9501 11.1553L15.1561 12.1278L14.1996 12.3986L14.2056 13.3926L13.2142 13.4654L13.02 14.4403L12.0342 14.3119L11.6477 15.2278L10.7079 14.9035L10.145 15.723L9.28975 15.2163L8.57337 15.9055ZM1.57112 9.29213C1.57165 9.2953 1.57222 9.29851 1.5728 9.30172C2.14191 12.5887 5.00721 15.0876 8.45609 15.0876C12.3148 15.0876 15.4425 11.9599 15.4425 8.10119C15.4425 6.19267 14.6765 4.4631 13.436 3.20214C12.9415 2.69898 12.3714 2.27058 11.744 1.93524C10.7598 1.4051 9.63352 1.10451 8.43697 1.10451C4.57818 1.10451 1.45049 4.2322 1.45049 8.09089C1.45049 8.50065 1.48543 8.90111 1.55358 9.29142C1.55943 9.29165 1.56528 9.29189 1.57112 9.29213Z" fill="white"/>
</mask>
<g mask="url(#mask1_8702_18098)">
<mask id="mask2_8702_18098" style="mask-type:luminance" maskUnits="userSpaceOnUse" x="0" y="0" width="17" height="16">
<path d="M8.57532 15.9084L7.83957 15.2399L6.99916 15.7708L6.41308 14.9679L5.483 15.3188L5.07051 14.4143L4.08876 14.5708L3.86682 13.6018L2.87376 13.5575L2.85133 12.5636L1.88746 12.3203L2.06565 11.3422L1.1705 10.9099L1.54188 9.98777L0.75207 9.38401L1.30148 8.55563L0.649414 7.80526L1.35434 7.10436L0.866611 6.23802L1.69826 5.6933L1.39489 4.74663L2.31913 4.38053L2.21254 3.39217L3.19151 3.21955L3.28611 2.22994L4.27979 2.25788L4.57165 1.30767L5.53941 1.53512L6.01655 0.663077L6.91869 1.0806L7.56156 0.322473L8.36124 0.913103L9.14362 0.299805L9.808 1.03939L10.6978 0.596222L11.1997 1.45427L12.1606 1.19936L12.4794 2.14085L13.4718 2.08454L13.5947 3.07098L14.5782 3.21562L14.4998 4.20657L15.4342 4.54616L15.1579 5.50117L16.0049 6.02187L15.5421 6.90163L16.2667 7.58222L15.6363 8.35084L16.2091 9.16327L15.4369 9.78936L15.8344 10.7005L14.952 11.1582L15.1581 12.1307L14.2016 12.4015L14.2076 13.3955L13.2161 13.4683L13.0219 14.4432L12.0361 14.3148L11.6497 15.2307L10.7099 14.9065L10.147 15.7259L9.2917 15.2192L8.57532 15.9084ZM1.57308 9.29506C1.5736 9.29823 1.57418 9.30144 1.57475 9.30465C2.14386 12.5916 5.00916 15.0905 8.45805 15.0905C12.3167 15.0905 15.4444 11.9628 15.4444 8.10412C15.4444 6.1956 14.6785 4.46603 13.4379 3.20507C12.9434 2.70191 12.3734 2.27351 11.746 1.93817C10.7618 1.40803 9.63547 1.10744 8.43892 1.10744C4.58014 1.10744 1.45245 4.23513 1.45245 8.09382C1.45245 8.50358 1.48738 8.90404 1.55553 9.29434C1.56138 9.29458 1.56723 9.29482 1.57308 9.29506Z" fill="white"/>
</mask>
<g mask="url(#mask2_8702_18098)">
<path d="M7.2486 23.6223L23.977 9.3126L9.66782 -7.41504L-7.06055 6.89468L7.2486 23.6223Z" fill="black" fill-opacity="0.75"/>
</g>
</g>
</g>
<mask id="mask3_8702_18098" style="mask-type:luminance" maskUnits="userSpaceOnUse" x="1" y="1" width="15" height="15">
<path d="M1.56641 1.92969H15.4547V15.0941H1.56641V1.92969Z" fill="white"/>
</mask>
<g mask="url(#mask3_8702_18098)">
<mask id="mask4_8702_18098" style="mask-type:luminance" maskUnits="userSpaceOnUse" x="1" y="1" width="15" height="15">
<path d="M8.45919 15.0908C5.01031 15.0908 2.14501 12.5919 1.5759 9.30495C1.57532 9.30174 1.57475 9.29853 1.57422 9.29537C1.77627 9.30347 1.97569 9.30749 2.17252 9.30749C2.32175 9.30749 2.46941 9.30519 2.61568 9.30064C3.17094 12.018 5.58004 14.0684 8.45919 14.0684C11.7477 14.0684 14.4232 11.393 14.4232 8.10443C14.4232 6.52716 13.8079 5.09109 12.8046 4.02346C13.0355 3.7327 13.2403 3.45406 13.42 3.19517C12.9305 2.69708 12.367 2.27218 11.7471 1.93848C12.3745 2.27381 12.9446 2.70221 13.4391 3.20538C14.6796 4.46634 15.4456 6.19591 15.4456 8.10443C15.4456 11.9631 12.3179 15.0908 8.45919 15.0908ZM8.45919 13.6425C5.80898 13.6425 3.5876 11.7711 3.04691 9.28066C3.87616 9.22962 4.65523 9.10678 5.38561 8.92826C5.4111 8.92227 5.43761 8.91551 5.46315 8.90866C5.46488 8.90828 5.46655 8.9078 5.46828 8.90741L7.76883 10.8562L11.9093 6.13039L11.3362 5.62833C11.7882 5.20088 12.186 4.77013 12.5328 4.35654C13.4414 5.34346 13.9972 6.6604 13.9972 8.10443C13.9972 11.158 11.5128 13.6425 8.45919 13.6425ZM7.646 9.20541L6.80376 8.492C7.76969 8.13179 8.63388 7.67502 9.40279 7.16807C9.42551 7.15297 9.44817 7.13787 9.47089 7.12268L7.646 9.20541Z" fill="white"/>
</mask>
<g mask="url(#mask4_8702_18098)">
<mask id="mask5_8702_18098" style="mask-type:luminance" maskUnits="userSpaceOnUse" x="1" y="1" width="15" height="15">
<path d="M8.45236 15.0898C5.00347 15.0898 2.13817 12.5909 1.56906 9.30398C1.56849 9.30077 1.56791 9.29755 1.56738 9.29439C1.76944 9.30249 1.96885 9.30652 2.16568 9.30652C2.31492 9.30652 2.46258 9.30422 2.60884 9.29966C3.1641 12.0171 5.5732 14.0674 8.45236 14.0674C11.7409 14.0674 14.4164 11.392 14.4164 8.10345C14.4164 6.52619 13.8011 5.09011 12.7977 4.02248C13.0286 3.73172 13.2334 3.45308 13.4131 3.19419C12.9236 2.69611 12.3601 2.2712 11.7403 1.9375C12.3677 2.27283 12.9377 2.70123 13.4323 3.2044C14.6728 4.46536 15.4387 6.19493 15.4387 8.10345C15.4387 11.9621 12.311 15.0898 8.45236 15.0898ZM8.45236 13.6415C5.80214 13.6415 3.58077 11.7701 3.04007 9.27968C3.86932 9.22864 4.64839 9.10581 5.37877 8.92729C5.40427 8.92129 5.43077 8.91454 5.45632 8.90768C5.45804 8.9073 5.45972 8.90682 5.46144 8.90644L7.76199 10.8552L11.9025 6.12942L11.3294 5.62735C11.7814 5.19991 12.1792 4.76916 12.526 4.35556C13.4346 5.34248 13.9904 6.65942 13.9904 8.10345C13.9904 11.1571 11.506 13.6415 8.45236 13.6415ZM7.63916 9.20444L6.79693 8.49102C7.76286 8.13082 8.62704 7.67404 9.39595 7.16709C9.41867 7.15199 9.44134 7.1369 9.46405 7.12171L7.63916 9.20444Z" fill="white"/>
</mask>
<g mask="url(#mask5_8702_18098)">
<path d="M15.2777 0.455078L0.161133 2.08928L1.7268 16.572L16.8434 14.9377L15.2777 0.455078Z" fill="black" fill-opacity="0.75"/>
</g>
</g>
<path d="M8.46107 2.56072C5.40737 2.56072 2.92303 5.04507 2.92303 8.09876C2.92303 11.1524 5.40737 13.6368 8.46107 13.6368C11.5147 13.6368 13.9991 11.1524 13.9991 8.09876C13.9991 5.04507 11.5147 2.56072 8.46107 2.56072ZM8.46107 14.0628C5.17254 14.0628 2.49707 11.3873 2.49707 8.09876C2.49707 4.81023 5.17254 2.13477 8.46107 2.13477C11.7496 2.13477 14.4251 4.81023 14.4251 8.09876C14.4251 11.3873 11.7496 14.0628 8.46107 14.0628Z" fill="white"/>
<path d="M7.77149 10.8512L5.01172 8.51349L5.77459 7.61284L7.64866 9.20041L11.0242 5.34766L11.912 6.12539L7.77149 10.8512Z" fill="white"/>
</g>
<mask id="mask6_8702_18098" style="mask-type:luminance" maskUnits="userSpaceOnUse" x="1" y="1" width="11" height="9">
<path d="M1.44434 1.09473H11.7502V9.30258H1.44434V1.09473Z" fill="white"/>
</mask>
<g mask="url(#mask6_8702_18098)">
<mask id="mask7_8702_18098" style="mask-type:luminance" maskUnits="userSpaceOnUse" x="1" y="1" width="11" height="9">
<path d="M1.57375 9.29114C1.56791 9.2909 1.56206 9.29066 1.55621 9.29042C1.48806 8.90012 1.45312 8.49966 1.45312 8.0899C1.45312 4.23121 4.58082 1.10352 8.4396 1.10352C9.63615 1.10352 10.7624 1.4041 11.7466 1.93425C10.767 1.41048 9.64756 1.11382 8.45872 1.11382C4.60003 1.11382 1.4723 4.24151 1.4723 8.1002C1.4723 8.50666 1.50666 8.90395 1.57375 9.29114Z" fill="white"/>
</mask>
<g mask="url(#mask7_8702_18098)">
<mask id="mask8_8702_18098" style="mask-type:luminance" maskUnits="userSpaceOnUse" x="1" y="1" width="11" height="9">
<path d="M1.57278 9.29505C1.56693 9.29481 1.56108 9.29457 1.55524 9.29433C1.48709 8.90403 1.45215 8.50356 1.45215 8.0938C1.45215 4.23511 4.57984 1.10742 8.43863 1.10742C9.63517 1.10742 10.7615 1.40801 11.7457 1.93816C10.766 1.41438 9.64658 1.11773 8.45775 1.11773C4.59906 1.11773 1.47132 4.24542 1.47132 8.10411C1.47132 8.51056 1.50568 8.90786 1.57278 9.29505Z" fill="white"/>
</mask>
<g mask="url(#mask8_8702_18098)">
<path d="M5.80107 14.3803L15.7895 5.83601L7.39559 -3.97656L-2.59277 4.56772L5.80107 14.3803Z" fill="black" fill-opacity="0.75"/>
</g>
</g>
</g>
<mask id="mask9_8702_18098" style="mask-type:luminance" maskUnits="userSpaceOnUse" x="1" y="1" width="13" height="9">
<path d="M1.46875 1.10547H13.4309V9.31332H1.46875V1.10547Z" fill="white"/>
</mask>
<g mask="url(#mask9_8702_18098)">
<mask id="mask10_8702_18098" style="mask-type:luminance" maskUnits="userSpaceOnUse" x="1" y="1" width="13" height="9">
<path d="M2.17241 9.30859C1.97558 9.30859 1.77617 9.30456 1.57411 9.29646C1.50702 8.90928 1.47266 8.51198 1.47266 8.10552C1.47266 4.24683 4.60039 1.11914 8.45909 1.11914C9.64792 1.11914 10.7674 1.4158 11.747 1.93957C12.3669 2.27327 12.9304 2.69818 13.4199 3.19626C13.2401 3.45516 13.0354 3.73379 12.8045 4.02455C11.7158 2.86611 10.1703 2.14153 8.45909 2.14153C5.17056 2.14153 2.49509 4.817 2.49509 8.10552C2.49509 8.51495 2.53655 8.91527 2.61557 9.30173C2.46931 9.30629 2.32165 9.30859 2.17241 9.30859ZM3.04681 9.28175C2.96437 8.90252 2.92105 8.50905 2.92105 8.10552C2.92105 5.05183 5.40539 2.56749 8.45909 2.56749C10.0687 2.56749 11.5199 3.25761 12.5327 4.35763C12.1859 4.77123 11.7881 5.20198 11.3361 5.62942L11.0215 5.35376L9.47079 7.12378C9.44807 7.13897 9.4254 7.15407 9.40268 7.16916C8.63377 7.67611 7.76959 8.13289 6.80366 8.49309L5.77183 7.61894L5.00896 8.5196L5.46817 8.90851C5.46645 8.90889 5.46477 8.90937 5.46305 8.90975C5.4375 8.91661 5.411 8.92337 5.3855 8.92936C4.65512 9.10788 3.87605 9.23071 3.04681 9.28175Z" fill="white"/>
</mask>
<g mask="url(#mask10_8702_18098)">
<mask id="mask11_8702_18098" style="mask-type:luminance" maskUnits="userSpaceOnUse" x="1" y="1" width="13" height="9">
<path d="M2.17241 9.30859C1.97558 9.30859 1.77617 9.30456 1.57411 9.29646C1.50702 8.90928 1.47266 8.51198 1.47266 8.10552C1.47266 4.24683 4.60039 1.11914 8.45909 1.11914C9.64792 1.11914 10.7674 1.4158 11.747 1.93957C12.3669 2.27327 12.9304 2.69818 13.4199 3.19626C13.2401 3.45516 13.0354 3.73379 12.8045 4.02455C11.7158 2.86611 10.1703 2.14153 8.45909 2.14153C5.17056 2.14153 2.49509 4.817 2.49509 8.10552C2.49509 8.51495 2.53655 8.91527 2.61557 9.30173C2.46931 9.30629 2.32165 9.30859 2.17241 9.30859ZM3.04681 9.28175C2.96437 8.90252 2.92105 8.50905 2.92105 8.10552C2.92105 5.05183 5.40539 2.56749 8.45909 2.56749C10.0687 2.56749 11.5199 3.25761 12.5327 4.35763C12.1859 4.77123 11.7881 5.20198 11.3361 5.62942L11.0215 5.35376L9.47079 7.12378C9.44807 7.13897 9.4254 7.15407 9.40268 7.16916C8.63377 7.67611 7.76959 8.13289 6.80366 8.49309L5.77183 7.61894L5.00896 8.5196L5.46817 8.90851C5.46645 8.90889 5.46477 8.90937 5.46305 8.90975C5.4375 8.91661 5.411 8.92337 5.3855 8.92936C4.65512 9.10788 3.87605 9.23071 3.04681 9.28175Z" fill="white"/>
</mask>
<g mask="url(#mask11_8702_18098)">
<path d="M13.2849 -0.15918L0.600586 1.21205L1.61372 10.5836L14.298 9.21229L13.2849 -0.15918Z" fill="black" fill-opacity="0.75"/>
</g>
</g>
<path d="M2.61755 9.29497C2.53853 8.9085 2.49707 8.50818 2.49707 8.09876C2.49707 4.81023 5.17254 2.13477 8.46106 2.13477C10.1723 2.13477 11.7178 2.85935 12.8064 4.01779C12.7615 4.07434 12.7155 4.13137 12.6687 4.18879C12.6248 4.24256 12.5802 4.29652 12.5347 4.35087C11.5219 3.25085 10.0706 2.56072 8.46106 2.56072C5.40737 2.56072 2.92303 5.04507 2.92303 8.09876C2.92303 8.50229 2.96635 8.89576 3.04878 9.27499C2.97162 9.27964 2.89408 9.2838 2.81616 9.28726C2.75031 9.29032 2.68403 9.29286 2.61755 9.29497Z" fill="white"/>
<path d="M5.47094 8.90241L5.01172 8.51349L5.77459 7.61284L6.80642 8.48699C6.80484 8.48761 6.80335 8.48809 6.80177 8.48872C6.77867 8.4973 6.75576 8.50578 6.7318 8.51421C6.32952 8.66197 5.90869 8.79275 5.47094 8.90241ZM9.47355 7.11768L11.0242 5.34766L11.3389 5.62332C11.3376 5.62457 11.3364 5.62567 11.3352 5.62687C11.3199 5.6422 11.3037 5.65668 11.2883 5.67115C10.7866 6.1423 10.22 6.60837 9.58603 7.04195C9.54874 7.06702 9.51122 7.09242 9.47355 7.11768Z" fill="white"/>
</g>
</svg>
