<svg width="14" height="19" viewBox="0 0 14 19" fill="none" xmlns="http://www.w3.org/2000/svg">
<path d="M6.99607 0.610229C3.28231 0.610229 0.259767 3.63398 0.259766 7.34773C0.259763 13.8823 6.61685 18.85 6.61685 18.85C6.84017 19.0279 7.15675 19.0279 7.38008 18.85C7.38008 18.85 13.7384 13.8823 13.7384 7.34773C13.7383 3.63398 10.7098 0.610229 6.99607 0.610229ZM6.99607 4.28643C8.68018 4.28643 10.0622 5.66362 10.0622 7.34773C10.0622 9.03186 8.68019 10.4126 6.99607 10.4126C5.31194 10.4126 3.93476 9.03186 3.93477 7.34773C3.93477 5.66362 5.31196 4.28643 6.99607 4.28643Z" fill="#E34105"/>
</svg>
