<svg width="13" height="13" viewBox="0 0 13 13" fill="none" xmlns="http://www.w3.org/2000/svg">
<path fill-rule="evenodd" clip-rule="evenodd" d="M7.19902 8.0498H8.39902V2.4498H7.19902V8.0498ZM11.999 0.0498047L9.19902 1.9166V8.58301L11.999 10.4498C12.4406 10.4498 12.799 10.0914 12.799 9.64981V0.849805C12.799 0.408205 12.4406 0.0498047 11.999 0.0498047ZM-0.000976562 5.2498C-0.000976562 6.743 1.02342 7.709 2.40662 7.9738L2.39902 8.0498V11.2498C2.39902 11.6914 2.75742 12.0498 3.19902 12.0498H4.39902C4.84062 12.0498 5.19902 11.6914 5.19902 11.2498V8.0498H6.39902V2.4498H3.19902C1.43182 2.4498 -0.000976562 3.4826 -0.000976562 5.2498Z" fill="#10438F"/>
</svg>
