<svg width="12" height="13" viewBox="0 0 12 13" fill="none" xmlns="http://www.w3.org/2000/svg">
<g clip-path="url(#clip0_8119_3913)">
<path d="M11.6345 6.7077L6.13626 1.20971C5.925 0.998474 5.64609 0.874387 5.35038 0.860365L1.2577 0.651868C0.919947 0.635085 0.590125 0.761887 0.350799 1.00119C0.111496 1.24077 -0.0153061 1.57029 0.00147764 1.90809L0.209975 5.99803C0.22402 6.29646 0.350799 6.57539 0.559319 6.78389L1.22388 7.44873L1.02114 7.39784C0.798622 8.31051 0.702882 9.12443 0.702882 9.82584C0.702882 10.654 0.835209 11.3186 1.06627 11.806C1.18177 12.0481 1.32538 12.2453 1.50003 12.3919C1.67196 12.5382 1.88593 12.6285 2.11122 12.6285C2.32521 12.6285 2.53371 12.5468 2.71967 12.4114C2.90286 12.2764 3.07175 12.0849 3.22383 11.8399C3.4772 11.4314 3.63507 10.8992 3.73659 10.2877C3.75335 10.195 3.76737 10.099 3.77868 10.0032L3.26899 9.49356C3.24918 9.73864 3.2181 9.97521 3.18153 10.1977C3.08856 10.7638 2.93643 11.2369 2.74773 11.5412C2.62121 11.7411 2.49717 11.8792 2.38739 11.9581C2.2746 12.0399 2.18743 12.0624 2.11122 12.0651C2.03228 12.0624 1.95635 12.0371 1.86065 11.9609C1.71983 11.8454 1.56194 11.6033 1.44942 11.24C1.33664 10.8766 1.26622 10.4005 1.26622 9.82586C1.26622 9.23146 1.3394 8.53031 1.51983 7.74445L3.26899 9.49356C3.30281 9.11041 3.3196 8.70496 3.3196 8.2907C3.3196 6.95582 3.15344 5.53319 2.92816 4.55863C2.67456 4.55863 2.41821 4.46294 2.224 4.26872C1.84085 3.88281 1.84085 3.26034 2.224 2.87441C2.60993 2.4885 3.23514 2.4885 3.61805 2.87441C4.00396 3.26032 4.00396 3.88281 3.61805 4.26872C3.57016 4.31657 3.51955 4.35868 3.4662 4.39251C3.54488 4.71076 3.60979 5.07134 3.66892 5.46001C3.79848 6.32481 3.88292 7.32467 3.88292 8.2907C3.88292 8.88787 3.85183 9.47102 3.77868 10.0032L6.06035 12.2849C6.52767 12.7523 7.28549 12.7523 7.75307 12.2849L11.6345 8.40072C12.1019 7.93312 12.1019 7.17532 11.6345 6.7077Z" fill="#052759"/>
<path d="M3.4397 4.28027C3.3525 3.93368 3.25953 3.64075 3.15253 3.40967L2.64258 3.64925C2.72425 3.82392 2.81175 4.09129 2.89342 4.41533C2.9047 4.46042 2.91599 4.50829 2.92725 4.5589C3.11596 4.5589 3.30466 4.50279 3.46528 4.39277C3.4595 4.35342 3.44822 4.31683 3.4397 4.28027Z" fill="#052759"/>
</g>
<defs>
<clipPath id="clip0_8119_3913">
<rect width="11.985" height="12" fill="white" transform="translate(0 0.650391)"/>
</clipPath>
</defs>
</svg>
