<svg width="17" height="17" viewBox="0 0 17 17" fill="none" xmlns="http://www.w3.org/2000/svg">
<g clip-path="url(#clip0_7831_10809)">
<path d="M8.30189 8.12495C9.31101 8.12495 10.2788 7.72407 10.9924 7.01052C11.7059 6.29696 12.1068 5.32917 12.1068 4.32004C12.1068 3.31092 11.7059 2.34313 10.9924 1.62957C10.2788 0.91601 9.31101 0.515137 8.30189 0.515137C7.29276 0.515137 6.32497 0.91601 5.61141 1.62957C4.89785 2.34313 4.49698 3.31092 4.49698 4.32004C4.49698 5.32917 4.89785 6.29696 5.61141 7.01052C6.32497 7.72407 7.29276 8.12495 8.30189 8.12495ZM8.30189 9.79665C3.24302 9.79665 0 12.5883 0 13.9476V16.4857H16.6038V13.9476C16.6038 12.3038 13.5336 9.79665 8.30189 9.79665Z" fill="black"/>
</g>
<defs>
<clipPath id="clip0_7831_10809">
<rect width="16.6038" height="16" fill="white" transform="translate(0 0.5)"/>
</clipPath>
</defs>
</svg>
