<svg width="15" height="16" viewBox="0 0 15 16" fill="none" xmlns="http://www.w3.org/2000/svg">
<g clip-path="url(#clip0_8065_3930)">
<rect y="0.599976" width="15" height="15" rx="4" fill="white"/>
<path fill-rule="evenodd" clip-rule="evenodd" d="M8.01198 15.6H0.827885C0.370522 15.6 0 15.2292 0 14.772V1.42786C0 0.970555 0.370581 0.599976 0.827885 0.599976H14.1722C14.6294 0.599976 15 0.970555 15 1.42786V14.772C15 15.2293 14.6293 15.6 14.1722 15.6H10.3498V9.79115H12.2995L12.5915 7.52735H10.3498V6.08205C10.3498 5.42663 10.5318 4.97998 11.4717 4.97998L12.6704 4.97945V2.95469C12.4631 2.9271 11.7515 2.86547 10.9236 2.86547C9.19526 2.86547 8.01198 3.92045 8.01198 5.85785V7.52735H6.05722V9.79115H8.01198V15.6Z" fill="#4460A0"/>
</g>
<defs>
<clipPath id="clip0_8065_3930">
<rect y="0.599976" width="15" height="15" rx="4" fill="white"/>
</clipPath>
</defs>
</svg>
