<svg width="15" height="16" viewBox="0 0 15 16" fill="none" xmlns="http://www.w3.org/2000/svg">
<g clip-path="url(#clip0_8065_4316)">
<path d="M11.7857 0.599976H3.21429C1.43908 0.599976 0 2.03906 0 3.81426V12.3857C0 14.1609 1.43908 15.6 3.21429 15.6H11.7857C13.5609 15.6 15 14.1609 15 12.3857V3.81426C15 2.03906 13.5609 0.599976 11.7857 0.599976Z" fill="url(#paint0_radial_8065_4316)"/>
<path d="M11.7857 0.599976H3.21429C1.43908 0.599976 0 2.03906 0 3.81426V12.3857C0 14.1609 1.43908 15.6 3.21429 15.6H11.7857C13.5609 15.6 15 14.1609 15 12.3857V3.81426C15 2.03906 13.5609 0.599976 11.7857 0.599976Z" fill="url(#paint1_radial_8065_4316)"/>
<path d="M11.7857 0.599976H3.21429C1.43908 0.599976 0 2.03906 0 3.81426V12.3857C0 14.1609 1.43908 15.6 3.21429 15.6H11.7857C13.5609 15.6 15 14.1609 15 12.3857V3.81426C15 2.03906 13.5609 0.599976 11.7857 0.599976Z" fill="url(#paint2_radial_8065_4316)"/>
<path d="M11.2497 5.15355C11.2497 5.59733 10.8899 5.95712 10.4461 5.95712C10.0024 5.95712 9.64258 5.59733 9.64258 5.15355C9.64258 4.70975 10.0024 4.34998 10.4461 4.34998C10.8899 4.34998 11.2497 4.70975 11.2497 5.15355Z" fill="white"/>
<path fill-rule="evenodd" clip-rule="evenodd" d="M7.49888 10.7785C8.97821 10.7785 10.1775 9.57928 10.1775 8.09996C10.1775 6.62064 8.97821 5.42139 7.49888 5.42139C6.01956 5.42139 4.82031 6.62064 4.82031 8.09996C4.82031 9.57928 6.01956 10.7785 7.49888 10.7785ZM7.49888 9.7071C8.38651 9.7071 9.10603 8.98758 9.10603 8.09996C9.10603 7.21233 8.38651 6.49282 7.49888 6.49282C6.61126 6.49282 5.89174 7.21233 5.89174 8.09996C5.89174 8.98758 6.61126 9.7071 7.49888 9.7071Z" fill="white"/>
<path fill-rule="evenodd" clip-rule="evenodd" d="M2.14258 7.88565C2.14258 6.08549 2.14258 5.18539 2.49291 4.49783C2.80108 3.89302 3.2928 3.4013 3.89761 3.09313C4.58517 2.7428 5.48527 2.7428 7.28544 2.7428H7.71401C9.51417 2.7428 10.4143 2.7428 11.1018 3.09313C11.7066 3.4013 12.1984 3.89302 12.5065 4.49783C12.8569 5.18539 12.8569 6.08549 12.8569 7.88565V8.31423C12.8569 10.1144 12.8569 11.0145 12.5065 11.702C12.1984 12.3069 11.7066 12.7986 11.1018 13.1067C10.4143 13.4571 9.51417 13.4571 7.71401 13.4571H7.28544C5.48527 13.4571 4.58517 13.4571 3.89761 13.1067C3.2928 12.7986 2.80108 12.3069 2.49291 11.702C2.14258 11.0145 2.14258 10.1144 2.14258 8.31423V7.88565ZM7.28544 3.81423H7.71401C8.63179 3.81423 9.25563 3.81506 9.73788 3.85446C10.2076 3.89284 10.4479 3.9624 10.6154 4.04778C11.0186 4.25323 11.3464 4.58104 11.5519 4.98423C11.6373 5.1518 11.7068 5.39201 11.7452 5.86178C11.7846 6.34403 11.7854 6.96787 11.7854 7.88565V8.31423C11.7854 9.23201 11.7846 9.85585 11.7452 10.3381C11.7068 10.8079 11.6373 11.0481 11.5519 11.2157C11.3464 11.6188 11.0186 11.9466 10.6154 12.1521C10.4479 12.2375 10.2076 12.3071 9.73788 12.3454C9.25563 12.3848 8.63179 12.3857 7.71401 12.3857H7.28544C6.36765 12.3857 5.74381 12.3848 5.26156 12.3454C4.79179 12.3071 4.55158 12.2375 4.38401 12.1521C3.98082 11.9466 3.65301 11.6188 3.44756 11.2157C3.36218 11.0481 3.29262 10.8079 3.25424 10.3381C3.21484 9.85585 3.21401 9.23201 3.21401 8.31423V7.88565C3.21401 6.96787 3.21484 6.34403 3.25424 5.86178C3.29262 5.39201 3.36218 5.1518 3.44756 4.98423C3.65301 4.58104 3.98082 4.25323 4.38401 4.04778C4.55158 3.9624 4.79179 3.89284 5.26156 3.85446C5.74381 3.81506 6.36765 3.81423 7.28544 3.81423Z" fill="white"/>
</g>
<defs>
<radialGradient id="paint0_radial_8065_4316" cx="0" cy="0" r="1" gradientUnits="userSpaceOnUse" gradientTransform="translate(5.35714 11.85) rotate(-55.3758) scale(13.6712)">
<stop stop-color="#B13589"/>
<stop offset="0.79309" stop-color="#C62F94"/>
<stop offset="1" stop-color="#8A3AC8"/>
</radialGradient>
<radialGradient id="paint1_radial_8065_4316" cx="0" cy="0" r="1" gradientUnits="userSpaceOnUse" gradientTransform="translate(4.82143 16.1357) rotate(-65.1363) scale(12.104)">
<stop stop-color="#E0E8B7"/>
<stop offset="0.444662" stop-color="#FB8A2E"/>
<stop offset="0.71474" stop-color="#E2425C"/>
<stop offset="1" stop-color="#E2425C" stop-opacity="0"/>
</radialGradient>
<radialGradient id="paint2_radial_8065_4316" cx="0" cy="0" r="1" gradientUnits="userSpaceOnUse" gradientTransform="translate(-0.803571 1.13569) rotate(-8.1301) scale(20.8344 4.45626)">
<stop offset="0.156701" stop-color="#406ADC"/>
<stop offset="0.467799" stop-color="#6A45BE"/>
<stop offset="1" stop-color="#6A45BE" stop-opacity="0"/>
</radialGradient>
<clipPath id="clip0_8065_4316">
<rect width="15" height="15" fill="white" transform="translate(0 0.599976)"/>
</clipPath>
</defs>
</svg>
