<svg width="17" height="17" viewBox="0 0 17 17" fill="none" xmlns="http://www.w3.org/2000/svg">
<rect x="0.746094" y="0.650269" width="16" height="16" rx="2" fill="#FE4909"/>
<path d="M7.69544 14.8169H12.188C13.1804 14.8169 13.985 14.0123 13.985 13.0199V10.4318C13.985 9.4393 13.1804 8.63477 12.188 8.63477H7.69544C6.70297 8.63477 5.89844 9.43933 5.89844 10.4318V13.0199C5.89844 14.0124 6.703 14.8169 7.69544 14.8169Z" stroke="white" stroke-width="0.88" stroke-linecap="round" stroke-linejoin="round"/>
<path d="M6.8564 7.65762C8.28508 7.65762 9.44326 6.49944 9.44326 5.07075C9.44326 3.64207 8.28508 2.48389 6.8564 2.48389C5.42771 2.48389 4.26953 3.64207 4.26953 5.07075C4.26953 6.49944 5.42771 7.65762 6.8564 7.65762Z" stroke="white" stroke-width="0.88" stroke-linecap="round" stroke-linejoin="round"/>
<path d="M11.715 7.65765C12.9696 7.65765 13.9866 6.6406 13.9866 5.38601C13.9866 4.13142 12.9696 3.11438 11.715 3.11438C10.4604 3.11438 9.44336 4.13142 9.44336 5.38601C9.44336 6.6406 10.4604 7.65765 11.715 7.65765Z" stroke="white" stroke-width="0.88" stroke-linecap="round" stroke-linejoin="round"/>
<path d="M5.89849 10.8482L4.40436 9.98557C4.00503 9.755 3.50586 10.0432 3.50586 10.5043V12.9552C3.50586 13.4163 4.00503 13.7045 4.40436 13.474L5.89849 12.6113" stroke="white" stroke-width="0.88" stroke-linecap="round" stroke-linejoin="round"/>
</svg>
