<svg width="16" height="17" viewBox="0 0 16 17" fill="none" xmlns="http://www.w3.org/2000/svg">
<g clip-path="url(#clip0_8195_5894)">
<path d="M0 1.79639C0 1.16377 0.529625 0.650269 1.1825 0.650269H14.8175C15.4706 0.650269 16 1.16377 16 1.79639V15.5043C16 16.1371 15.4706 16.6503 14.8175 16.6503H1.1825C0.529688 16.6503 0 16.1372 0 15.5045V1.79621V1.79639Z" fill="#006699"/>
<path d="M4.86155 14.0401V6.83688H2.4673V14.0401H4.8618H4.86155ZM3.66492 5.85356C4.49967 5.85356 5.01936 5.30044 5.01936 4.60919C5.00373 3.90219 4.49967 3.3645 3.6808 3.3645C2.86136 3.3645 2.32617 3.90219 2.32617 4.60913C2.32617 5.30038 2.84567 5.8535 3.64923 5.8535H3.66473L3.66492 5.85356ZM6.1868 14.0401H8.58086V10.0179C8.58086 9.80294 8.59648 9.58738 8.65973 9.43382C8.83273 9.0035 9.22667 8.55806 9.88824 8.55806C10.7544 8.55806 11.101 9.21856 11.101 10.187V14.0401H13.495V9.91C13.495 7.69757 12.314 6.668 10.7389 6.668C9.44742 6.668 8.88023 7.38981 8.56511 7.88144H8.58105V6.83713H6.18692C6.21817 7.51288 6.18673 14.0404 6.18673 14.0404L6.1868 14.0401Z" fill="white"/>
</g>
<defs>
<clipPath id="clip0_8195_5894">
<rect width="16" height="16" fill="white" transform="translate(0 0.650269)"/>
</clipPath>
</defs>
</svg>
