<svg width="16" height="17" viewBox="0 0 16 17" fill="none" xmlns="http://www.w3.org/2000/svg">
<g clip-path="url(#clip0_8195_5898)">
<path d="M13.6 0.650269H2.4C1.07452 0.650269 0 1.72479 0 3.05027V14.2503C0 15.5758 1.07452 16.6503 2.4 16.6503H13.6C14.9255 16.6503 16 15.5758 16 14.2503V3.05027C16 1.72479 14.9255 0.650269 13.6 0.650269Z" fill="#BD081B"/>
<path d="M8.28125 2.68152C5.03125 2.68152 3.375 5.02527 3.375 6.99402C3.375 8.15027 3.8125 9.21277 4.78125 9.58777C4.9375 9.65027 5.09375 9.58777 5.15625 9.43152L5.25 8.86902C5.3125 8.68152 5.28125 8.65027 5.1875 8.49402C4.90625 8.15027 4.71875 7.74402 4.71875 7.15027C4.71875 5.40027 6 3.83777 8.09375 3.83777C9.96875 3.83777 10.9688 4.99402 10.9688 6.49402C10.9688 8.49402 10.0938 10.119 8.78125 10.119C8.0625 10.119 7.53125 9.55652 7.71875 8.80652C7.90625 7.96277 8.3125 7.02527 8.3125 6.40027C8.3125 5.83777 8.03125 5.33777 7.375 5.33777C6.625 5.33777 6.0625 6.11902 6.0625 7.15027C6.0625 7.77527 6.28125 8.21277 6.28125 8.21277L5.375 11.9628C5.23976 12.8554 5.26091 13.7648 5.4375 14.6503L5.53125 14.619C5.59375 14.5253 6.5 13.4628 6.78125 12.369L7.28125 10.4628C7.5 10.9315 8.1875 11.3378 8.9375 11.3378C11.1562 11.3378 12.6562 9.33777 12.6562 6.61902C12.6562 4.55652 10.9062 2.68152 8.28125 2.68152Z" fill="white"/>
</g>
<defs>
<clipPath id="clip0_8195_5898">
<rect width="16" height="16" fill="white" transform="translate(0 0.650269)"/>
</clipPath>
</defs>
</svg>
