<svg width="14" height="16" viewBox="0 0 14 16" fill="none" xmlns="http://www.w3.org/2000/svg">
<g clip-path="url(#clip0_8065_3919)">
<path d="M2.56212 10.2732C2.65214 9.52782 2.95783 9.11054 3.53387 8.68278C4.35812 8.1034 5.38767 8.43111 5.38767 8.43111V6.48692C5.63801 6.48047 5.88842 6.49533 6.13594 6.53122V9.03324C6.13594 9.03324 5.10668 8.70553 4.28248 9.28519C3.70674 9.71267 3.40042 10.1303 3.31071 10.8756C3.3079 11.2804 3.38385 11.8094 3.73364 12.2668C3.64712 12.2225 3.55898 12.1719 3.46918 12.1153C2.69871 11.5979 2.55837 10.8217 2.56212 10.2732ZM10.3872 2.89204C9.82016 2.27073 9.6057 1.64343 9.52822 1.20276H10.2415C10.2415 1.20276 10.0992 2.3582 11.1357 3.49448L11.1501 3.50976C10.8707 3.33404 10.6146 3.12664 10.3872 2.89204ZM13.8231 4.65351V7.10518C13.8231 7.10518 12.913 7.06958 12.2394 6.89821C11.2988 6.65852 10.6944 6.29096 10.6944 6.29096C10.6944 6.29096 10.2768 6.02886 10.243 6.0106V11.0733C10.243 11.3552 10.1658 12.0592 9.93047 12.6464C9.62321 13.4145 9.14908 13.9187 9.06186 14.0217C9.06186 14.0217 8.48519 14.7032 7.4678 15.1622C6.55075 15.5762 5.74556 15.5657 5.50489 15.5762C5.50489 15.5762 4.11307 15.6313 2.86062 14.8174C2.58979 14.638 2.33698 14.4348 2.10547 14.2104L2.11172 14.2149C3.36447 15.0289 4.75599 14.9737 4.75599 14.9737C4.997 14.9632 5.80213 14.9737 6.71889 14.5597C7.73536 14.1008 8.31296 13.4193 8.31296 13.4193C8.39925 13.3162 8.87557 12.812 9.18156 12.0437C9.4163 11.4568 9.49412 10.7525 9.49412 10.4706V5.40847C9.52788 5.42702 9.94516 5.68911 9.94516 5.68911C9.94516 5.68911 10.55 6.05703 11.4905 6.29637C12.1643 6.46774 13.0742 6.5034 13.0742 6.5034V4.58222C13.3855 4.65202 13.6509 4.67091 13.8231 4.65351Z" fill="#EE1D52"/>
<path d="M13.0756 4.58222V6.50276C13.0756 6.50276 12.1657 6.46711 11.4918 6.29579C10.5513 6.05611 9.94651 5.68854 9.94651 5.68854C9.94651 5.68854 9.52923 5.42644 9.49547 5.40783V10.4712C9.49547 10.7531 9.41828 11.4574 9.18291 12.0442C8.87566 12.8127 8.40152 13.3168 8.31431 13.4199C8.31431 13.4199 7.73735 14.1014 6.72024 14.5604C5.80348 14.9744 4.99835 14.9639 4.75734 14.9744C4.75734 14.9744 3.36582 15.0295 2.11307 14.2156L2.10682 14.2111C1.97456 14.0829 1.85006 13.9478 1.73393 13.806C1.33417 13.3186 1.08912 12.7422 1.02754 12.5778V12.5757C0.928463 12.2899 0.720294 11.6036 0.748739 10.9388C0.799061 9.76601 1.21164 9.04614 1.32073 8.86578C1.60963 8.37402 1.98538 7.93399 2.43126 7.56538C2.82472 7.24723 3.2707 6.99412 3.75089 6.81642C4.27001 6.60778 4.82589 6.49591 5.38873 6.48692V8.43111C5.38873 8.43111 4.35912 8.10461 3.53522 8.68278C2.95918 9.11054 2.65349 9.52782 2.56347 10.2732C2.55972 10.8217 2.70006 11.5979 3.4699 12.1156C3.5597 12.1725 3.64783 12.223 3.73436 12.2671C3.8688 12.4419 4.03251 12.5943 4.2188 12.718C4.97082 13.194 5.60095 13.2272 6.40676 12.9181C6.94403 12.7114 7.34847 12.2456 7.53603 11.7294C7.65388 11.4071 7.65233 11.0826 7.65233 10.7471V1.20276H9.52767C9.60521 1.64343 9.81961 2.27073 10.3866 2.89204C10.614 3.12664 10.8702 3.33404 11.1496 3.50976C11.2321 3.59513 11.6541 4.01723 12.1957 4.27636C12.4758 4.41031 12.771 4.51293 13.0756 4.58222Z" fill="black"/>
<path d="M0.28125 11.9806V11.9821L0.327782 12.1082C0.322437 12.0936 0.305144 12.0489 0.28125 11.9806Z" fill="#69C9D0"/>
<path d="M3.75161 6.81629C3.27142 6.99405 2.82545 7.24716 2.43198 7.56525C1.98596 7.93472 1.6103 8.37568 1.32176 8.86836C1.21268 9.04814 0.800099 9.76859 0.749777 10.9414C0.721332 11.6062 0.9295 12.2925 1.02858 12.5783V12.5803C1.09109 12.7434 1.3352 13.3197 1.73497 13.8086C1.8511 13.9503 1.97559 14.0856 2.10786 14.2136C1.68409 13.9327 1.30614 13.5931 0.986384 13.2059C0.590053 12.7227 0.345629 12.1523 0.281868 11.9839C0.281793 11.9827 0.281793 11.9815 0.281868 11.9803V11.9782C0.182473 11.6927 -0.0263177 11.0061 0.00274908 10.3405C0.0530717 9.16767 0.465658 8.4478 0.574742 8.26744C0.863193 7.77464 1.23887 7.33369 1.68496 6.96433C2.07834 6.64607 2.52434 6.39296 3.0046 6.21537C3.30416 6.09624 3.61625 6.0084 3.93543 5.95327C4.41642 5.8728 4.90772 5.86577 5.39102 5.93259V6.4868C4.82765 6.49561 4.2712 6.60748 3.75161 6.81629Z" fill="#69C9D0"/>
<path d="M9.52896 1.20271H7.65356V10.7474C7.65356 11.0829 7.65356 11.4064 7.53731 11.7296C7.34791 12.2455 6.94497 12.7113 6.40799 12.9181C5.60194 13.2284 4.97182 13.194 4.22009 12.7179C4.03345 12.5948 3.86934 12.4429 3.73438 12.2686C4.37481 12.596 4.94803 12.5903 5.65816 12.3171C6.19486 12.1104 6.59837 11.6446 6.78714 11.1284C6.90529 10.8061 6.90373 10.4817 6.90373 10.1464V0.599976H9.4933C9.4933 0.599976 9.46427 0.837234 9.52896 1.20271ZM13.0753 4.05104V4.58218C12.7713 4.51278 12.4766 4.41015 12.197 4.27632C11.6553 4.01719 11.2333 3.59509 11.1508 3.50971C11.2466 3.56996 11.346 3.62478 11.4484 3.67388C12.107 3.98903 12.7555 4.08309 13.0753 4.05104Z" fill="#69C9D0"/>
</g>
<defs>
<clipPath id="clip0_8065_3919">
<rect width="13.8249" height="15" fill="white" transform="translate(0 0.599976)"/>
</clipPath>
</defs>
</svg>
