<svg width="17" height="17" viewBox="0 0 17 17" fill="none" xmlns="http://www.w3.org/2000/svg">
<g clip-path="url(#clip0_8195_5919)">
<path d="M8.26562 16.6503C12.6839 16.6503 16.2656 13.0685 16.2656 8.65027C16.2656 4.23199 12.6839 0.650269 8.26562 0.650269C3.84735 0.650269 0.265625 4.23199 0.265625 8.65027C0.265625 13.0685 3.84735 16.6503 8.26562 16.6503Z" fill="#9146FF"/>
<path d="M11.0922 9.00969L9.90625 10.1347H8.71875L7.67969 11.1191V10.1347H6.34375V5.91907H11.0922V9.00969ZM6.04688 5.35657L4.5625 6.76125V11.8206H6.34375V13.2253L7.82812 11.8206H9.01562L11.6859 9.29094V5.35657H6.04688ZM10.2031 6.94719H9.60938V8.63313H10.2031V6.94719ZM7.97656 6.93938H8.57031V8.62532H7.97656V6.93938Z" fill="white"/>
</g>
<defs>
<clipPath id="clip0_8195_5919">
<rect width="16" height="16" fill="white" transform="translate(0.265625 0.650269)"/>
</clipPath>
</defs>
</svg>
