<svg width="15" height="16" viewBox="0 0 15 16" fill="none" xmlns="http://www.w3.org/2000/svg">
<g clip-path="url(#clip0_8195_5889)">
<path d="M7.50002 15.6503C11.6422 15.6503 15 12.2924 15 8.15028C15 4.00814 11.6422 0.650269 7.50002 0.650269C3.35787 0.650269 0 4.00814 0 8.15028C0 12.2924 3.35787 15.6503 7.50002 15.6503Z" fill="#D42428"/>
<path d="M12.8026 2.84619C15.7316 5.77538 15.7318 10.5243 12.8026 13.4535C9.87368 16.3824 5.1245 16.3826 2.19531 13.4535L12.8026 2.84619Z" fill="#CC202D"/>
<path d="M14.8494 9.65242L11.1374 5.94055L6.75947 6.43901L4.11133 10.5387L9.05958 15.4868C11.9689 14.8714 14.2561 12.5701 14.8494 9.65242Z" fill="#BA202E"/>
<path d="M11.4256 6.70303C11.4256 6.0743 10.9163 5.5647 10.2879 5.5647H4.95001C4.32175 5.5647 3.8125 6.07442 3.8125 6.70303V9.7555C3.8125 10.3842 4.32185 10.8938 4.95001 10.8938H10.2878C10.9163 10.8938 11.4255 10.3841 11.4255 9.7555V6.70303H11.4256ZM6.8575 9.51698V6.64998L9.03171 8.08354L6.8575 9.51698Z" fill="white"/>
</g>
<defs>
<clipPath id="clip0_8195_5889">
<rect width="15" height="15" fill="white" transform="translate(0 0.650269)"/>
</clipPath>
</defs>
</svg>
