<?xml version="1.0" standalone="no"?>
<!DOCTYPE svg PUBLIC "-//W3C//DTD SVG 20010904//EN"
 "http://www.w3.org/TR/2001/REC-SVG-20010904/DTD/svg10.dtd">
<svg version="1.0" xmlns="http://www.w3.org/2000/svg"
 width="318.000000pt" height="312.000000pt" viewBox="0 0 318.000000 312.000000"
 preserveAspectRatio="xMidYMid meet">

<g transform="translate(0.000000,312.000000) scale(0.100000,-0.100000)"
fill="#000000" stroke="none">
<path d="M1332 3109 c-154 -20 -363 -90 -512 -171 -185 -101 -376 -268 -506
-441 -136 -183 -249 -444 -290 -672 -24 -136 -24 -402 0 -540 53 -296 208
-591 435 -827 232 -241 496 -379 841 -439 110 -20 382 -17 505 5 499 89 904
395 1125 851 208 427 208 920 0 1362 -265 563 -796 890 -1434 882 -55 -1 -129
-5 -164 -10z m-410 -1058 c121 -31 226 -90 326 -184 28 -28 52 -54 52 -60 0
-17 -53 3 -115 43 -128 83 -237 120 -355 120 -91 -1 -146 -12 -217 -47 -100
-49 -194 -177 -222 -304 -31 -140 92 -341 246 -399 210 -81 450 33 878 415
199 178 413 332 550 396 57 27 81 32 173 36 186 9 313 -23 400 -102 102 -92
172 -252 172 -395 0 -149 -44 -257 -144 -355 -180 -176 -443 -192 -668 -42
-66 44 -222 186 -213 195 2 3 53 -24 112 -59 137 -82 214 -116 305 -135 194
-42 368 38 450 203 29 59 33 78 36 166 6 150 -7 198 -77 267 -112 110 -262
154 -396 115 -155 -45 -357 -184 -714 -491 -321 -276 -536 -394 -717 -394
-156 0 -328 96 -414 230 -136 212 -111 480 59 651 132 131 307 177 493 130z"/>
</g>
</svg>
