<svg width="167" height="32" viewBox="0 0 167 32" fill="none" xmlns="http://www.w3.org/2000/svg">
<path d="M27.1418 0C30.1331 0.518103 32.9943 1.428 35.6702 2.67999C40.349 9.66711 42.6737 17.5476 41.8154 26.6368C38.2356 29.3134 34.7631 30.9373 31.3491 32C30.5037 30.8411 29.7559 29.6057 29.1089 28.3105C30.3412 27.8423 31.5246 27.2644 32.6431 26.5903C32.3505 26.3711 32.0612 26.142 31.7783 25.9062C25.0576 29.0876 17.6671 29.0876 10.8652 25.9062C10.5856 26.142 10.2962 26.3711 10.0004 26.5903C11.1156 27.2611 12.2958 27.839 13.5281 28.3072C12.8811 29.6057 12.13 30.8377 11.2879 31.9967C7.87719 30.934 4.40793 29.3101 0.828133 26.6368C0.0965663 18.7962 1.5597 10.8427 6.95704 2.68662C9.63295 1.43134 12.4974 0.518103 15.492 0C15.8627 0.66419 16.3016 1.55754 16.5975 2.2682C19.7188 1.78999 22.8694 1.78999 26.0493 2.2682C26.3452 1.55754 26.7744 0.66419 27.1418 0ZM109.169 10.2356C111.444 10.2356 113.334 10.7238 114.836 11.7001V15.9542C114.306 15.5822 113.688 15.28 112.982 15.0475C112.277 14.8151 111.523 14.6988 110.716 14.6988C109.305 14.6988 108.203 14.9612 107.406 15.4892C106.61 16.0172 106.21 16.7047 106.21 17.5581C106.21 18.395 106.597 19.0791 107.371 19.6171C108.145 20.1517 109.266 20.4207 110.739 20.4207C111.497 20.4207 112.245 20.3078 112.982 20.0853C113.717 19.8595 114.351 19.5839 114.881 19.2584V23.373C113.214 24.3958 111.279 24.9072 109.077 24.9072C107.224 24.9006 105.644 24.5751 104.34 23.9243C103.037 23.2733 102.051 22.39 101.395 21.2742C100.738 20.1584 100.406 18.9031 100.406 17.5083C100.406 16.1136 100.747 14.8649 101.43 13.7657C102.113 12.6665 103.114 11.803 104.435 11.1754C105.755 10.5478 107.332 10.2356 109.169 10.2356ZM92.0752 10.2324C93.3496 10.2324 94.5169 10.3719 95.5806 10.6508C96.6436 10.9298 97.5214 11.2851 98.2207 11.7201V15.3698C97.505 14.9348 96.6856 14.5927 95.7494 14.3337C94.8161 14.078 93.8573 13.9518 92.8685 13.9518C91.4411 13.9518 90.7293 14.2008 90.7293 14.6956C90.7293 14.9282 90.8398 15.1008 91.0608 15.217C91.2818 15.3333 91.6881 15.4528 92.2769 15.579L94.5526 15.9975C96.039 16.2598 97.1474 16.7214 97.8756 17.3789C98.6043 18.0365 98.9681 19.0095 98.9681 20.298C98.9681 21.7093 98.3669 22.8285 97.1604 23.6587C95.954 24.489 94.2438 24.904 92.0264 24.904C90.7225 24.9007 89.4549 24.738 88.2258 24.4126C86.9967 24.0871 85.8877 23.6155 84.9029 22.9945V19.1357C85.6475 19.7235 86.6454 20.2083 87.8971 20.5902C89.1489 20.9688 90.3587 21.1581 91.5289 21.1581C92.0752 21.1581 92.4883 21.085 92.7676 20.9389C93.0476 20.7928 93.1875 20.6168 93.1875 20.4142C93.1875 20.1818 93.1127 19.9892 92.9597 19.833C92.8067 19.677 92.5109 19.5474 92.0723 19.4379L89.341 18.8102C87.777 18.4383 86.668 17.9235 86.0084 17.2627C85.3483 16.6051 85.0196 15.7417 85.0196 14.6724C85.0196 13.7724 85.3058 12.9921 85.8849 12.3245C86.4601 11.6571 87.2795 11.1423 88.3425 10.7803C89.4062 10.415 90.6477 10.2324 92.0752 10.2324ZM166.042 7.69856V24.4358H160.466V21.3906C159.994 22.5363 159.279 23.4097 158.317 24.0074C157.354 24.6019 156.164 24.9007 154.753 24.9007C153.492 24.9007 152.393 24.5886 151.453 23.9609C150.513 23.3333 149.788 22.4732 149.278 21.3806C148.771 20.288 148.513 19.0527 148.513 17.6712C148.498 16.2466 148.767 14.968 149.323 13.8356C149.876 12.7031 150.659 11.8198 151.668 11.1855C152.676 10.5512 153.827 10.2324 155.117 10.2324C157.728 10.2324 159.494 11.371 160.418 13.6451L160.465 13.7655L160.466 7.69856H166.042ZM125.169 10.2291C126.973 10.2291 128.531 10.5379 129.834 11.1589C131.138 11.7799 132.133 12.6301 132.816 13.716C133.499 14.802 133.84 16.0473 133.84 17.4587C133.84 18.8534 133.499 20.1154 132.816 21.2477C132.133 22.3802 131.135 23.2702 129.821 23.921C128.508 24.572 126.957 24.8974 125.166 24.8974C123.374 24.8974 121.823 24.5753 120.513 23.9244C119.199 23.2735 118.198 22.3835 117.508 21.2511C116.819 20.1186 116.471 18.8567 116.471 17.4619C116.471 16.0672 116.816 14.8218 117.508 13.7293C118.201 12.6367 119.196 11.7799 120.503 11.1589C121.806 10.5379 123.364 10.2291 125.169 10.2291ZM82.4129 14.0414V24.5088H76.8534V14.0414C78.5568 14.7919 80.6704 14.8251 82.4129 14.0414ZM145.444 10.5346C146.247 10.5346 146.937 10.7205 147.516 11.0924V16.1136C146.937 15.7251 146.189 15.5324 145.262 15.5324C144.049 15.5324 143.113 15.9077 142.463 16.6582C141.809 17.4088 141.484 18.5777 141.484 20.1584V24.4357H135.908V10.8368H141.371V15.1605C141.673 13.5798 142.164 12.4142 142.84 11.6603C143.513 10.9098 144.384 10.5346 145.444 10.5346ZM65.0786 8.16346C67.2183 8.16346 69.026 8.5055 70.509 9.18629C71.988 9.86703 73.0969 10.8168 73.8319 12.0323C74.5663 13.2477 74.9369 14.6392 74.9369 16.2066C74.9369 17.7409 74.5533 19.1323 73.786 20.3776C73.0187 21.6263 71.8514 22.6126 70.2812 23.3399C68.7109 24.0671 66.7661 24.4324 64.4417 24.4324H56.2025V8.16346H65.0786ZM14.4548 13.3566C12.3771 13.3566 10.7384 15.2661 10.7384 17.5874C10.7384 19.9087 12.4129 21.8149 14.4548 21.8149C16.5325 21.8149 18.1744 19.9087 18.1711 17.5874C18.2069 15.2628 16.5325 13.3566 14.4548 13.3566ZM28.1887 13.3566C26.111 13.3566 24.4724 15.2661 24.4724 17.5874C24.4724 19.9087 26.1469 21.8149 28.1887 21.8149C30.2664 21.8149 31.9051 19.9087 31.9051 17.5874C31.9409 15.2628 30.2664 13.3566 28.1887 13.3566ZM125.166 14.513C124.193 14.513 123.432 14.7886 122.876 15.3399C122.324 15.8912 122.047 16.6284 122.047 17.5583C122.047 18.4881 122.324 19.2353 122.876 19.7998C123.429 20.3644 124.193 20.65 125.166 20.65C126.121 20.6467 126.876 20.3644 127.428 19.7998C127.981 19.2353 128.261 18.4881 128.261 17.5583C128.261 16.6284 127.984 15.8879 127.428 15.3399C126.876 14.7886 126.121 14.513 125.166 14.513ZM157.393 14.5828C156.454 14.5828 155.703 14.8584 155.14 15.4096C154.577 15.961 154.298 16.6749 154.298 17.5583C154.298 18.4417 154.577 19.1623 155.14 19.7202C155.703 20.278 156.444 20.557 157.37 20.557C158.31 20.5537 159.064 20.2714 159.634 19.7069C160.203 19.1423 160.485 18.4084 160.485 17.5118C160.485 16.645 160.209 15.9377 159.656 15.3964C159.103 14.8551 158.346 14.5828 157.393 14.5828ZM64.6723 12.3013H61.8956V20.2979H64.3504C65.7909 20.2979 66.8999 19.9293 67.6734 19.1954C68.4474 18.4581 68.8345 17.4553 68.8345 16.1834C68.8345 15.0044 68.4894 14.0646 67.8003 13.3606C67.1112 12.6566 66.0674 12.3013 64.6723 12.3013ZM79.6357 7.18369C81.1708 7.18369 82.4158 8.32552 82.4158 9.73409C82.4158 11.1426 81.1708 12.2845 79.6357 12.2845C78.1 12.2845 76.8556 11.1426 76.8556 9.73409C76.8556 8.32552 78.1 7.18369 79.6357 7.18369Z" fill="black" fill-opacity="0.65"/>
</svg>
