<svg width="207" height="42" viewBox="0 0 207 42" fill="none" xmlns="http://www.w3.org/2000/svg">
<path fill-rule="evenodd" clip-rule="evenodd" d="M17.2534 0.212146C5.65516 2.42066 -1.81794 13.473 0.384672 25.1606C1.41363 30.6192 5.46278 36.3926 10.2169 39.1787C18.241 43.8813 28.6883 42.6022 35.2839 36.1099C41.7314 29.7633 43.3847 20.1154 39.4453 11.8234C36.1483 4.88357 29.8054 0.556818 22.1901 0.0518336C20.5191 -0.0586977 18.2975 0.013443 17.2534 0.212146ZM7.76116 14.7394C2.68474 16.9956 2.43963 24.3211 7.34772 27.1008C10.7248 29.0136 14.1614 27.8981 19.7057 23.0904C26.0752 17.5677 28.8431 15.83 31.2668 15.8329C32.88 15.8346 35.1337 17.0876 35.8159 18.3621C36.5339 19.7045 36.4268 22.3416 35.5969 23.7469C33.7917 26.8025 30.2298 27.2337 26.2988 24.8724L23.7924 23.3668L25.2411 24.8674C26.0381 25.6926 27.5079 26.6802 28.5073 27.0616C34.5165 29.3566 39.8963 23.544 37.103 17.7744C35.8433 15.1718 34.0799 14.1437 30.8745 14.1437C28.6469 14.1437 28.047 14.3416 25.7297 15.8393C24.2869 16.772 22.2167 18.3494 21.1291 19.3455C16.0586 23.9878 12.8684 25.9562 10.4135 25.9562C8.14802 25.9562 6.061 24.3953 5.40668 22.2117C4.99408 20.8347 5.04555 20.3225 5.7581 18.7118C7.30512 15.2145 11.8259 14.361 15.5941 16.8547C17.7453 18.2781 18.1933 18.0305 16.3219 16.4527C13.6358 14.1876 10.4409 13.548 7.76116 14.7394Z" fill="#10438F"/>
<path d="M51.1245 16.5174C50.5441 16.5174 50.0289 16.6316 49.579 16.8598C49.1356 17.0815 48.7606 17.4043 48.4541 17.8282C48.1541 18.2521 47.9259 18.764 47.7694 19.3639C47.6129 19.9639 47.5346 20.6388 47.5346 21.3887C47.5346 22.3995 47.6585 23.2635 47.9063 23.9809C48.1606 24.6917 48.5519 25.2362 49.0801 25.6144C49.6083 25.9861 50.2898 26.172 51.1245 26.172C51.7049 26.172 52.2853 26.1067 52.8656 25.9763C53.4525 25.8459 54.0883 25.6601 54.7731 25.4188V27.962C54.1405 28.2229 53.5177 28.4087 52.9048 28.5196C52.2918 28.6369 51.6038 28.6956 50.8408 28.6956C49.3671 28.6956 48.1541 28.3924 47.202 27.7859C46.2565 27.173 45.5555 26.3187 45.099 25.2231C44.6425 24.1211 44.4143 22.8364 44.4143 21.3692C44.4143 20.2866 44.561 19.2954 44.8544 18.3955C45.1479 17.4956 45.5783 16.7163 46.1456 16.0577C46.713 15.3991 47.414 14.8904 48.2487 14.5318C49.0834 14.1731 50.042 13.9938 51.1245 13.9938C51.8353 13.9938 52.5461 14.0851 53.2569 14.2677C53.9742 14.4437 54.6589 14.6883 55.3111 15.0013L54.3329 17.4663C53.7982 17.2119 53.2602 16.9902 52.7189 16.8011C52.1777 16.612 51.6462 16.5174 51.1245 16.5174ZM71.8069 21.33C71.8069 22.4321 71.6699 23.4363 71.3961 24.3428C71.1222 25.2427 70.7048 26.0187 70.144 26.6708C69.5897 27.3229 68.8854 27.8251 68.0312 28.1772C67.1769 28.5228 66.1661 28.6956 64.9988 28.6956C63.8316 28.6956 62.8208 28.5228 61.9665 28.1772C61.1122 27.8251 60.4047 27.3229 59.8439 26.6708C59.2896 26.0187 58.8755 25.2394 58.6016 24.333C58.3277 23.4266 58.1908 22.4191 58.1908 21.3105C58.1908 19.8302 58.4321 18.5422 58.9146 17.4467C59.4037 16.3446 60.1536 15.4904 61.1644 14.8839C62.1752 14.2774 63.4598 13.9742 65.0184 13.9742C66.5704 13.9742 67.8453 14.2774 68.843 14.8839C69.8473 15.4904 70.5907 16.3446 71.0733 17.4467C71.5623 18.5488 71.8069 19.8432 71.8069 21.33ZM61.3698 21.33C61.3698 22.3278 61.4937 23.1885 61.7415 23.9124C61.9959 24.6297 62.3904 25.184 62.9251 25.5753C63.4598 25.96 64.1511 26.1524 64.9988 26.1524C65.8596 26.1524 66.5574 25.96 67.0921 25.5753C67.6268 25.184 68.0149 24.6297 68.2561 23.9124C68.5039 23.1885 68.6278 22.3278 68.6278 21.33C68.6278 19.8302 68.3474 18.6498 67.7866 17.7891C67.2258 16.9283 66.3031 16.4979 65.0184 16.4979C64.1641 16.4979 63.4664 16.6935 62.9251 17.0848C62.3904 17.4695 61.9959 18.0238 61.7415 18.7477C61.4937 19.465 61.3698 20.3258 61.3698 21.33ZM88.4592 28.5H84.6052L78.3841 17.6815H78.2961C78.3221 18.1314 78.345 18.5846 78.3645 19.0411C78.3841 19.4976 78.4037 19.9541 78.4232 20.4105C78.4428 20.8605 78.4623 21.3137 78.4819 21.7702V28.5H75.7724V14.1992H79.597L85.8084 24.9101H85.8769C85.8638 24.4667 85.8475 24.0265 85.8279 23.5896C85.8084 23.1527 85.7888 22.7158 85.7693 22.2789C85.7562 21.8419 85.7432 21.405 85.7301 20.9681V14.1992H88.4592V28.5ZM101.306 28.5H93.0703V14.1992H101.306V16.6837H96.1026V19.8236H100.945V22.3082H96.1026V25.9959H101.306V28.5ZM111.376 16.5174C110.795 16.5174 110.28 16.6316 109.83 16.8598C109.387 17.0815 109.012 17.4043 108.705 17.8282C108.405 18.2521 108.177 18.764 108.021 19.3639C107.864 19.9639 107.786 20.6388 107.786 21.3887C107.786 22.3995 107.91 23.2635 108.158 23.9809C108.412 24.6917 108.803 25.2362 109.331 25.6144C109.86 25.9861 110.541 26.172 111.376 26.172C111.956 26.172 112.537 26.1067 113.117 25.9763C113.704 25.8459 114.34 25.6601 115.024 25.4188V27.962C114.392 28.2229 113.769 28.4087 113.156 28.5196C112.543 28.6369 111.855 28.6956 111.092 28.6956C109.618 28.6956 108.405 28.3924 107.453 27.7859C106.508 27.173 105.807 26.3187 105.35 25.2231C104.894 24.1211 104.666 22.8364 104.666 21.3692C104.666 20.2866 104.812 19.2954 105.106 18.3955C105.399 17.4956 105.83 16.7163 106.397 16.0577C106.964 15.3991 107.665 14.8904 108.5 14.5318C109.335 14.1731 110.293 13.9938 111.376 13.9938C112.087 13.9938 112.797 14.0851 113.508 14.2677C114.225 14.4437 114.91 14.6883 115.562 15.0013L114.584 17.4663C114.049 17.2119 113.511 16.9902 112.97 16.8011C112.429 16.612 111.897 16.5174 111.376 16.5174ZM124.595 28.5H121.562V16.7229H117.679V14.1992H128.478V16.7229H124.595V28.5ZM139.917 28.5H131.681V14.1992H139.917V16.6837H134.713V19.8236H139.555V22.3082H134.713V25.9959H139.917V28.5Z" fill="#10438F"/>
<path d="M148.48 14.1992C150.325 14.1992 151.672 14.597 152.519 15.3925C153.367 16.1816 153.791 17.2706 153.791 18.6596C153.791 19.2857 153.697 19.8856 153.507 20.4595C153.318 21.0268 153.009 21.5322 152.578 21.9756C152.154 22.4191 151.587 22.7712 150.876 23.032C150.165 23.2864 149.288 23.4135 148.245 23.4135H146.944V28.5H143.912V14.1992H148.48ZM148.323 16.6837H146.944V20.929H147.942C148.509 20.929 149.001 20.854 149.419 20.704C149.836 20.554 150.159 20.3193 150.387 19.9997C150.615 19.6802 150.729 19.2694 150.729 18.7672C150.729 18.0629 150.534 17.5413 150.143 17.2022C149.751 16.8565 149.145 16.6837 148.323 16.6837ZM169.133 14.1992V23.4527C169.133 24.4373 168.914 25.3275 168.477 26.1231C168.047 26.9121 167.392 27.5381 166.511 28.0011C165.637 28.4641 164.535 28.6956 163.205 28.6956C161.314 28.6956 159.873 28.2131 158.881 27.2479C157.89 26.2828 157.395 25.0047 157.395 23.4135V14.1992H160.417V22.9538C160.417 24.1341 160.658 24.9623 161.141 25.4383C161.624 25.9144 162.338 26.1524 163.283 26.1524C163.948 26.1524 164.486 26.0383 164.897 25.81C165.315 25.5818 165.621 25.2297 165.817 24.7536C166.012 24.2776 166.11 23.6711 166.11 22.9342V14.1992H169.133ZM173.636 14.1992H178.087C179.991 14.1992 181.432 14.4665 182.41 15.0013C183.388 15.536 183.878 16.4751 183.878 17.8184C183.878 18.3597 183.79 18.8487 183.613 19.2857C183.444 19.7226 183.196 20.0812 182.87 20.3616C182.544 20.642 182.146 20.8246 181.677 20.9094V21.0072C182.153 21.105 182.583 21.2746 182.968 21.5159C183.353 21.7506 183.659 22.0963 183.887 22.5527C184.122 23.0027 184.239 23.6026 184.239 24.3526C184.239 25.2199 184.028 25.9633 183.604 26.5828C183.18 27.2023 182.573 27.6783 181.784 28.0109C181.002 28.337 180.069 28.5 178.987 28.5H173.636V14.1992ZM176.668 19.8628H178.429C179.31 19.8628 179.919 19.7258 180.258 19.4519C180.597 19.1715 180.767 18.7607 180.767 18.2195C180.767 17.6717 180.565 17.2804 180.161 17.0457C179.763 16.8044 179.13 16.6837 178.263 16.6837H176.668V19.8628ZM176.668 22.2691V25.9959H178.644C179.557 25.9959 180.193 25.8198 180.552 25.4677C180.91 25.1155 181.09 24.6428 181.09 24.0493C181.09 23.6972 181.012 23.3874 180.855 23.1201C180.699 22.8527 180.434 22.644 180.063 22.494C179.698 22.3441 179.192 22.2691 178.547 22.2691H176.668ZM188.097 28.5V14.1992H191.13V25.9959H196.93V28.5H188.097ZM200.426 28.5V14.1992H203.459V28.5H200.426Z" fill="#FF672F"/>
</svg>
